<svg width="522.9875366210938px" height="122px" xmlns="http://www.w3.org/2000/svg" viewBox="-11.493768310546898 14 522.9875366210938 122" style="background: rgba(0, 0, 0, 0);" preserveAspectRatio="xMidYMid"><defs><linearGradient id="editing-outline-gradient" x1="-0.41354545764260087" x2="1.4135454576426008" y1="0.09326335692419985" y2="0.9067366430758002"><stop offset="0" stop-color="rgba(93.33333333333333%,25.882352941176457%,3.1372549019607843%,0.484)"></stop><stop offset="1" stop-color="rgba(25.49019607843146%,22.352941176470587%,100%,0.496)"></stop></linearGradient><filter id="editing-outline" x="-100%" y="-100%" width="300%" height="300%"><feMorphology in="SourceGraphic" operator="dilate" radius="1" result="outline"></feMorphology><feComposite operator="out" in="outline" in2="SourceAlpha"></feComposite></filter></defs><g filter="url(#editing-outline)"><g transform="translate(65.45499634742737, 104.76000022888184)"><path d="M28.42-9.86L28.42-9.86L28.42-9.86Q29.63-8.32 29.63-5.82L29.63-5.82L29.63-5.82Q29.63-2.37 27.07-0.54L27.07-0.54L27.07-0.54Q24.51 1.28 20.48 1.28L20.48 1.28L20.48 1.28Q18.18 1.28 14.66 0.77L14.66 0.77L14.66 0.77Q7.74-0.32 5.63-0.32L5.63-0.32L5.63-0.32Q3.52-0.32 2.69-0.22L2.69-0.22L2.69-0.22Q1.86-0.13 0.51 0L0.51 0L8.38-42.24L35.97-42.24L35.97-42.24Q35.97-38.34 34.08-36.29L34.08-36.29L34.08-36.29Q32.19-34.24 28.48-34.24L28.48-34.24L28.48-34.24Q24.77-34.24 20.99-35.97L20.99-35.97L19.01-24.77L30.40-24.77L30.40-24.77Q30.40-21.38 28.74-19.49L28.74-19.49L28.74-19.49Q27.07-17.60 24.29-17.60L24.29-17.60L24.29-17.60Q21.50-17.60 19.78-18.24L19.78-18.24L19.78-18.24Q18.05-18.88 17.86-19.07L17.86-19.07L15.55-6.98L15.55-6.98Q17.09-6.78 19.97-6.78L19.97-6.78L19.97-6.78Q24.90-6.78 28.42-9.86ZM44.03 0.19L44.03 0.19L44.03 0.19Q41.98 1.28 39.17 1.28L39.17 1.28L39.17 1.28Q36.35 1.28 34.82-0.16L34.82-0.16L34.82-0.16Q33.28-1.60 33.28-4.38L33.28-4.38L33.28-4.38Q33.28-7.17 35.23-9.89L35.23-9.89L35.23-9.89Q37.18-12.61 40.10-14.14L40.10-14.14L40.10-14.14Q43.01-15.68 45.06-16.58L45.06-16.58L41.02-25.86L41.02-25.86Q39.94-28.22 37.89-28.22L37.89-28.22L37.38-28.16L37.18-28.16L37.18-28.16Q37.57-30.40 40.19-32.13L40.19-32.13L40.19-32.13Q42.82-33.92 45.82-33.92L45.82-33.92L45.82-33.92Q50.69-33.92 52.93-29.06L52.93-29.06L53.44-28.03L56.19-21.25L56.19-21.25Q57.92-22.02 58.66-23.46L58.66-23.46L58.66-23.46Q59.39-24.90 59.39-27.74L59.39-27.74L59.39-27.74Q59.39-30.59 57.86-32.38L57.86-32.38L57.86-32.38Q60.29-33.92 63.49-33.92L63.49-33.92L63.49-33.92Q69.25-33.92 69.25-28.35L69.25-28.35L69.25-28.35Q69.25-22.27 61.63-18.75L61.63-18.75L57.79-16.96L61.25-8.06L61.25-8.06Q62.27-5.38 64.13-4.22L64.13-4.22L64.13-4.22Q64.90-3.71 65.79-3.65L65.79-3.65L65.79-3.65Q63.87-0.51 59.71 0.90L59.71 0.90L59.71 0.90Q58.43 1.28 56.70 1.28L56.70 1.28L56.70 1.28Q54.98 1.28 52.99 0.10L52.99 0.10L52.99 0.10Q51.01-1.09 50.30-2.94L50.30-2.94L46.78-12.10L46.78-12.10Q43.20-10.50 43.20-4.67L43.20-4.67L43.20-4.67Q43.20-1.98 44.03 0.19ZM100.80-4.38L100.80-4.38L100.80-4.38Q98.11-1.66 94.43-0.19L94.43-0.19L94.43-0.19Q90.75 1.28 87.10 1.28L87.10 1.28L87.10 1.28Q83.46 1.28 82.18 0.64L82.18 0.64L80.19 11.52L67.20 12.80L76.03-32.64L86.46-33.73L85.63-29.31L85.63-29.31Q88.32-33.86 93.89-33.86L93.89-33.86L93.89-33.86Q100.16-33.86 103.49-29.82L103.49-29.82L103.49-29.82Q106.43-26.18 106.43-20.61L106.43-20.61L106.43-20.61Q106.43-15.04 104.96-11.07L104.96-11.07L104.96-11.07Q103.49-7.10 100.80-4.38ZM86.34-22.34L82.94-3.58L82.94-3.58Q84.29-2.43 85.95-2.43L85.95-2.43L85.95-2.43Q87.62-2.43 88.58-3.07L88.58-3.07L88.58-3.07Q89.54-3.71 90.24-4.99L90.24-4.99L90.24-4.99Q92.16-8.45 93.70-18.94L93.70-18.94L93.70-18.94Q94.14-22.02 94.14-25.02L94.14-25.02L94.14-25.02Q94.14-28.03 93.47-28.99L93.47-28.99L93.47-28.99Q92.80-29.95 91.52-29.95L91.52-29.95L91.52-29.95Q87.62-29.95 86.34-22.34L86.34-22.34ZM136.19-10.82L136.19-10.82L136.19-10.82Q137.79-9.73 137.79-7.33L137.79-7.33L137.79-7.33Q137.79-4.93 136.58-3.39L136.58-3.39L136.58-3.39Q135.36-1.86 133.38-0.83L133.38-0.83L133.38-0.83Q129.28 1.28 124.86 1.28L124.86 1.28L124.86 1.28Q120.45 1.28 117.86 0.32L117.86 0.32L117.86 0.32Q115.26-0.64 113.54-2.43L113.54-2.43L113.54-2.43Q110.14-5.82 110.14-12.03L110.14-12.03L110.14-12.03Q110.14-21.70 115.39-27.58L115.39-27.58L115.39-27.58Q121.02-33.92 130.82-33.92L130.82-33.92L130.82-33.92Q136.90-33.92 139.90-31.36L139.90-31.36L139.90-31.36Q142.14-29.44 142.14-26.30L142.14-26.30L142.14-26.30Q142.14-15.04 122.69-15.04L122.69-15.04L122.69-15.04Q122.43-13.38 122.43-11.97L122.43-11.97L122.43-11.97Q122.43-9.02 123.74-7.90L123.74-7.90L123.74-7.90Q125.06-6.78 127.49-6.78L127.49-6.78L127.49-6.78Q129.92-6.78 132.51-7.90L132.51-7.90L132.51-7.90Q135.10-9.02 136.19-10.82ZM123.14-17.79L123.14-17.79L123.14-17.79Q127.68-17.79 130.30-20.61L130.30-20.61L130.30-20.61Q132.93-23.30 132.93-27.58L132.93-27.58L132.93-27.58Q132.93-29.06 132.38-29.86L132.38-29.86L132.38-29.86Q131.84-30.66 130.75-30.66L130.75-30.66L130.75-30.66Q129.66-30.66 128.74-30.24L128.74-30.24L128.74-30.24Q127.81-29.82 126.85-28.42L126.85-28.42L126.85-28.42Q124.48-25.22 123.14-17.79ZM164.35-17.98L164.35-17.98L164.35-17.98Q166.66-22.08 166.66-26.24L166.66-26.24L166.66-26.24Q166.66-28.99 164.67-28.99L164.67-28.99L164.67-28.99Q163.14-28.99 161.54-26.37L161.54-26.37L161.54-26.37Q159.87-23.74 159.36-20.35L159.36-20.35L156.03 0L142.78 1.28L149.31-32.64L159.87-33.92L158.72-27.46L158.72-27.46Q161.86-33.92 168.90-33.92L168.90-33.92L168.90-33.92Q172.61-33.92 174.62-32L174.62-32L174.62-32Q176.64-30.08 176.64-26.14L176.64-26.14L176.64-26.14Q176.64-22.21 174.05-19.71L174.05-19.71L174.05-19.71Q171.46-17.22 167.04-17.22L167.04-17.22L167.04-17.22Q165.12-17.22 164.35-17.98ZM193.02-3.52L193.02-3.52L193.02-3.52Q191.04 1.28 184.70 1.28L184.70 1.28L184.70 1.28Q181.44 1.28 179.39-0.96L179.39-0.96L179.39-0.96Q177.66-2.94 177.66-4.93L177.66-4.93L177.66-4.93Q177.66-10.11 180.03-20.22L180.03-20.22L182.40-32.64L195.39-33.92L191.49-13.70L191.49-13.70Q190.40-8.96 190.40-7.30L190.40-7.30L190.40-7.30Q190.40-3.65 193.02-3.52ZM183.55-41.54L183.55-41.54L183.55-41.54Q183.55-44.03 185.63-45.38L185.63-45.38L185.63-45.38Q187.71-46.72 190.72-46.72L190.72-46.72L190.72-46.72Q193.73-46.72 195.55-45.38L195.55-45.38L195.55-45.38Q197.38-44.03 197.38-41.54L197.38-41.54L197.38-41.54Q197.38-39.04 195.36-37.76L195.36-37.76L195.36-37.76Q193.34-36.48 190.34-36.48L190.34-36.48L190.34-36.48Q187.33-36.48 185.44-37.76L185.44-37.76L185.44-37.76Q183.55-39.04 183.55-41.54ZM224.38-10.82L224.38-10.82L224.38-10.82Q225.98-9.73 225.98-7.33L225.98-7.33L225.98-7.33Q225.98-4.93 224.77-3.39L224.77-3.39L224.77-3.39Q223.55-1.86 221.57-0.83L221.57-0.83L221.57-0.83Q217.47 1.28 213.06 1.28L213.06 1.28L213.06 1.28Q208.64 1.28 206.05 0.32L206.05 0.32L206.05 0.32Q203.46-0.64 201.73-2.43L201.73-2.43L201.73-2.43Q198.34-5.82 198.34-12.03L198.34-12.03L198.34-12.03Q198.34-21.70 203.58-27.58L203.58-27.58L203.58-27.58Q209.22-33.92 219.01-33.92L219.01-33.92L219.01-33.92Q225.09-33.92 228.10-31.36L228.10-31.36L228.10-31.36Q230.34-29.44 230.34-26.30L230.34-26.30L230.34-26.30Q230.34-15.04 210.88-15.04L210.88-15.04L210.88-15.04Q210.62-13.38 210.62-11.97L210.62-11.97L210.62-11.97Q210.62-9.02 211.94-7.90L211.94-7.90L211.94-7.90Q213.25-6.78 215.68-6.78L215.68-6.78L215.68-6.78Q218.11-6.78 220.70-7.90L220.70-7.90L220.70-7.90Q223.30-9.02 224.38-10.82ZM211.33-17.79L211.33-17.79L211.33-17.79Q215.87-17.79 218.50-20.61L218.50-20.61L218.50-20.61Q221.12-23.30 221.12-27.58L221.12-27.58L221.12-27.58Q221.12-29.06 220.58-29.86L220.58-29.86L220.58-29.86Q220.03-30.66 218.94-30.66L218.94-30.66L218.94-30.66Q217.86-30.66 216.93-30.24L216.93-30.24L216.93-30.24Q216-29.82 215.04-28.42L215.04-28.42L215.04-28.42Q212.67-25.22 211.33-17.79ZM259.58 1.28L259.58 1.28L259.58 1.28Q251.84 1.28 251.84-4.74L251.84-4.74L251.84-4.74Q251.90-6.40 252.42-9.22L252.42-9.22L253.57-15.10L253.57-15.10Q255.30-23.42 255.30-25.28L255.30-25.28L255.30-25.28Q255.30-28.99 253.12-28.99L253.12-28.99L253.12-28.99Q249.47-28.99 247.55-19.46L247.55-19.46L243.78 0L230.91 1.28L237.57-32.70L248.06-33.92L247.04-27.65L247.04-27.65Q250.05-33.92 259.26-33.92L259.26-33.92L259.26-33.92Q263.74-33.92 265.63-32.03L265.63-32.03L265.63-32.03Q267.52-30.14 267.52-25.92L267.52-25.92L267.52-25.92Q267.52-21.95 265.47-12.67L265.47-12.67L265.47-12.67Q264.51-8.51 264.51-6.94L264.51-6.94L264.51-6.94Q264.51-5.38 265.38-4.48L265.38-4.48L265.38-4.48Q266.24-3.58 267.52-3.46L267.52-3.46L267.52-3.46Q266.88-1.28 264.67 0L264.67 0L264.67 0Q262.46 1.28 259.58 1.28ZM304.06-26.62L304.06-26.62L304.06-26.62Q304.06-23.94 301.82-22.27L301.82-22.27L301.82-22.27Q299.58-20.61 295.94-20.61L295.94-20.61L295.94-20.61Q294.40-20.61 293.50-21.06L293.50-21.06L293.50-21.06Q294.21-22.72 294.43-24.80L294.43-24.80L294.43-24.80Q294.66-26.88 294.66-27.46L294.66-27.46L294.66-27.46Q294.66-30.14 292.80-30.14L292.80-30.14L292.80-30.14Q291.52-30.14 290.08-28.54L290.08-28.54L290.08-28.54Q288.64-26.94 287.42-24.45L287.42-24.45L287.42-24.45Q284.74-18.69 284.74-12.86L284.74-12.86L284.74-12.86Q284.74-9.66 285.95-8.22L285.95-8.22L285.95-8.22Q287.17-6.78 289.86-6.78L289.86-6.78L289.86-6.78Q293.57-6.78 296.51-9.86L296.51-9.86L296.51-9.86Q297.34-10.82 297.79-11.90L297.79-11.90L297.79-11.90Q300.22-10.62 300.22-7.10L300.22-7.10L300.22-7.10Q300.22-3.52 296.26-1.15L296.26-1.15L296.26-1.15Q292.16 1.28 285.63 1.28L285.63 1.28L285.63 1.28Q272.64 1.28 272.64-12.48L272.64-12.48L272.64-12.48Q272.64-22.53 278.34-28.29L278.34-28.29L278.34-28.29Q283.84-33.92 293.95-33.92L293.95-33.92L293.95-33.92Q304.06-33.92 304.06-26.62ZM331.71-10.82L331.71-10.82L331.71-10.82Q333.31-9.73 333.31-7.33L333.31-7.33L333.31-7.33Q333.31-4.93 332.10-3.39L332.10-3.39L332.10-3.39Q330.88-1.86 328.90-0.83L328.90-0.83L328.90-0.83Q324.80 1.28 320.38 1.28L320.38 1.28L320.38 1.28Q315.97 1.28 313.38 0.32L313.38 0.32L313.38 0.32Q310.78-0.64 309.06-2.43L309.06-2.43L309.06-2.43Q305.66-5.82 305.66-12.03L305.66-12.03L305.66-12.03Q305.66-21.70 310.91-27.58L310.91-27.58L310.91-27.58Q316.54-33.92 326.34-33.92L326.34-33.92L326.34-33.92Q332.42-33.92 335.42-31.36L335.42-31.36L335.42-31.36Q337.66-29.44 337.66-26.30L337.66-26.30L337.66-26.30Q337.66-15.04 318.21-15.04L318.21-15.04L318.21-15.04Q317.95-13.38 317.95-11.97L317.95-11.97L317.95-11.97Q317.95-9.02 319.26-7.90L319.26-7.90L319.26-7.90Q320.58-6.78 323.01-6.78L323.01-6.78L323.01-6.78Q325.44-6.78 328.03-7.90L328.03-7.90L328.03-7.90Q330.62-9.02 331.71-10.82ZM318.66-17.79L318.66-17.79L318.66-17.79Q323.20-17.79 325.82-20.61L325.82-20.61L325.82-20.61Q328.45-23.30 328.45-27.58L328.45-27.58L328.45-27.58Q328.45-29.06 327.90-29.86L327.90-29.86L327.90-29.86Q327.36-30.66 326.27-30.66L326.27-30.66L326.27-30.66Q325.18-30.66 324.26-30.24L324.26-30.24L324.26-30.24Q323.33-29.82 322.37-28.42L322.37-28.42L322.37-28.42Q320-25.22 318.66-17.79ZM358.98-22.46L358.98-22.46L358.98-22.46Q359.87-24.83 359.87-26.88L359.87-26.88L359.87-26.88Q359.87-30.66 356.80-30.66L356.80-30.66L356.80-30.66Q355.20-30.66 353.89-29.22L353.89-29.22L353.89-29.22Q352.58-27.78 352.58-25.98L352.58-25.98L352.58-25.98Q352.58-24.70 353.60-23.68L353.60-23.68L353.60-23.68Q355.07-22.27 358.85-19.97L358.85-19.97L358.85-19.97Q362.62-17.66 364.06-15.78L364.06-15.78L364.06-15.78Q365.50-13.89 365.50-11.30L365.50-11.30L365.50-11.30Q365.50-8.70 364.26-6.34L364.26-6.34L364.26-6.34Q363.01-3.97 360.77-2.30L360.77-2.30L360.77-2.30Q355.97 1.28 348.29 1.28L348.29 1.28L348.29 1.28Q344.13 1.28 340.93-0.90L340.93-0.90L340.93-0.90Q337.73-3.01 337.73-5.50L337.73-5.50L337.73-5.50Q337.73-8 339.55-9.47L339.55-9.47L339.55-9.47Q341.38-10.94 344.06-10.94L344.06-10.94L344.06-10.94Q346.75-10.94 348.42-9.92L348.42-9.92L348.42-9.92Q347.58-7.81 347.58-6.40L347.58-6.40L347.58-6.40Q347.58-2.18 351.17-2.18L351.17-2.18L351.17-2.18Q352.70-2.18 353.73-3.14L353.73-3.14L353.73-3.14Q354.75-4.10 354.75-5.76L354.75-5.76L354.75-5.76Q354.75-9.02 349.25-12.48L349.25-12.48L349.25-12.48Q344.77-15.42 343.74-16.58L343.74-16.58L343.74-16.58Q342.02-18.62 342.02-21.18L342.02-21.18L342.02-21.18Q342.02-23.74 343.23-26.18L343.23-26.18L343.23-26.18Q344.45-28.61 346.69-30.34L346.69-30.34L346.69-30.34Q351.36-33.92 359.49-33.92L359.49-33.92L359.49-33.92Q363.65-33.92 366.11-32.26L366.11-32.26L366.11-32.26Q368.58-30.59 368.58-27.78L368.58-27.78L368.58-27.78Q368.58-24.96 366.88-23.36L366.88-23.36L366.88-23.36Q365.18-21.76 362.11-21.76L362.11-21.76L362.11-21.76Q360-21.76 358.98-22.46Z" fill="url(#editing-outline-gradient)"></path></g></g><style>text {
  font-size: 64px;
  font-family: Arial Black;
  dominant-baseline: central;
  text-anchor: middle;
}</style></svg>