<svg width="483.4549926757812px" height="188px" xmlns="http://www.w3.org/2000/svg" viewBox="8.272503662109386 -19 483.4549926757812 188" style="background: rgba(0, 0, 0, 0);" preserveAspectRatio="xMidYMid"><defs><linearGradient id="editing-outline-gradient" x1="-0.41354545764260087" x2="1.4135454576426008" y1="0.09326335692419985" y2="0.9067366430758002"><stop offset="0" stop-color="rgba(93.33333333333333%,25.882352941176457%,3.1372549019607843%,0.762)"></stop><stop offset="1" stop-color="rgba(25.49019607843146%,22.352941176470587%,100%,0.774)"></stop></linearGradient><filter id="editing-outline" x="-100%" y="-100%" width="300%" height="300%"><feMorphology in="SourceGraphic" operator="dilate" radius="1" result="outline"></feMorphology><feComposite operator="out" in="outline" in2="SourceAlpha"></feComposite></filter></defs><g filter="url(#editing-outline)"><g transform="translate(80.18504267930984, 111.04000091552734)"><path d="M50.03-56.18L50.03-56.18L50.03-56.18Q41.45-56.18 35.19-59.04L35.19-59.04L31.80-41.87L52.26-41.87L52.26-41.87Q52.26-36.25 49.45-32.70L49.45-32.70L49.45-32.70Q46.64-29.15 41.55-29.15L41.55-29.15L41.55-29.15Q36.04-29.15 30.95-31.16L30.95-31.16L30.95-31.16Q29.89-31.59 29.79-31.69L29.79-31.69L23.74 0L0.64 0L14.10-69.96L61.37-69.96L61.37-69.96Q61.37-63.49 58.35-59.84L58.35-59.84L58.35-59.84Q55.33-56.18 50.03-56.18ZM92.11-4.45L92.11-4.45L92.11-4.45Q87.03 2.12 74.41 2.12L74.41 2.12L74.41 2.12Q67.84 2.12 63.07-1.85L63.07-1.85L63.07-1.85Q58.30-5.83 58.30-11.55L58.30-11.55L58.30-11.55Q58.30-14.73 58.62-16.32L58.62-16.32L65.72-54.06L87.24-56.18L79.50-15.26L79.50-15.26Q79.08-12.93 79.08-11.55L79.08-11.55L79.08-11.55Q79.08-5.41 82.79-5.41L82.79-5.41L82.79-5.41Q86.92-5.41 89.89-11.02L89.89-11.02L89.89-11.02Q90.84-12.83 91.27-15.16L91.27-15.16L98.79-54.06L119.67-56.18L111.83-14.84L111.83-14.84Q111.51-13.25 111.51-11.55L111.51-11.55L111.51-11.55Q111.51-9.86 112.47-8.00L112.47-8.00L112.47-8.00Q113.42-6.15 116.49-5.72L116.49-5.72L116.49-5.72Q115.86-3.18 113.63-1.48L113.63-1.48L113.63-1.48Q108.97 2.12 103.93 2.12L103.93 2.12L103.93 2.12Q98.90 2.12 95.93 0.32L95.93 0.32L95.93 0.32Q92.96-1.48 92.11-4.45ZM127.09-10.60L127.09-10.60L127.09-10.60Q127.09-13.46 128.58-20.67L128.58-20.67L134.20-49.29L127.94-49.29L128.37-52.47L128.37-52.47Q141.09-56.29 153.38-65.61L153.38-65.61L158.47-65.61L155.93-54.06L164.19-54.06L163.24-49.29L155.08-49.29L149.67-20.67L149.67-20.67Q148.29-14.10 148.29-11.87L148.29-11.87L148.29-11.87Q148.29-6.78 152.75-5.72L152.75-5.72L152.75-5.72Q151.69-2.12 147.87 0L147.87 0L147.87 0Q144.05 2.12 138.65 2.12L138.65 2.12L138.65 2.12Q133.24 2.12 130.17-1.27L130.17-1.27L130.17-1.27Q127.09-4.66 127.09-10.60ZM197.69-4.45L197.69-4.45L197.69-4.45Q192.60 2.12 179.99 2.12L179.99 2.12L179.99 2.12Q173.42 2.12 168.65-1.85L168.65-1.85L168.65-1.85Q163.88-5.83 163.88-11.55L163.88-11.55L163.88-11.55Q163.88-14.73 164.19-16.32L164.19-16.32L171.30-54.06L192.81-56.18L185.08-15.26L185.08-15.26Q184.65-12.93 184.65-11.55L184.65-11.55L184.65-11.55Q184.65-5.41 188.36-5.41L188.36-5.41L188.36-5.41Q192.50-5.41 195.46-11.02L195.46-11.02L195.46-11.02Q196.42-12.83 196.84-15.16L196.84-15.16L204.37-54.06L225.25-56.18L217.41-14.84L217.41-14.84Q217.09-13.25 217.09-11.55L217.09-11.55L217.09-11.55Q217.09-9.86 218.04-8.00L218.04-8.00L218.04-8.00Q219.00-6.15 222.07-5.72L222.07-5.72L222.07-5.72Q221.43-3.18 219.21-1.48L219.21-1.48L219.21-1.48Q214.54 2.12 209.51 2.12L209.51 2.12L209.51 2.12Q204.47 2.12 201.51 0.32L201.51 0.32L201.51 0.32Q198.54-1.48 197.69-4.45ZM264.15-29.79L264.15-29.79L264.15-29.79Q267.97-36.57 267.97-43.46L267.97-43.46L267.97-43.46Q267.97-48.02 264.68-48.02L264.68-48.02L264.68-48.02Q262.14-48.02 259.49-43.67L259.49-43.67L259.49-43.67Q256.73-39.33 255.88-33.71L255.88-33.71L250.37 0L228.43 2.12L239.24-54.06L256.73-56.18L254.82-45.47L254.82-45.47Q260.02-56.18 271.68-56.18L271.68-56.18L271.68-56.18Q277.83-56.18 281.16-53L281.16-53L281.16-53Q284.50-49.82 284.50-43.30L284.50-43.30L284.50-43.30Q284.50-36.78 280.21-32.65L280.21-32.65L280.21-32.65Q275.92-28.51 268.60-28.51L268.60-28.51L268.60-28.51Q265.42-28.51 264.15-29.79ZM329.13-17.91L329.13-17.91L329.13-17.91Q331.78-16.11 331.78-12.14L331.78-12.14L331.78-12.14Q331.78-8.16 329.77-5.62L329.77-5.62L329.77-5.62Q327.75-3.07 324.47-1.38L324.47-1.38L324.47-1.38Q317.68 2.12 310.37 2.12L310.37 2.12L310.37 2.12Q303.05 2.12 298.76 0.53L298.76 0.53L298.76 0.53Q294.47-1.06 291.61-4.03L291.61-4.03L291.61-4.03Q285.99-9.65 285.99-19.93L285.99-19.93L285.99-19.93Q285.99-35.93 294.68-45.69L294.68-45.69L294.68-45.69Q304.01-56.18 320.23-56.18L320.23-56.18L320.23-56.18Q330.30-56.18 335.28-51.94L335.28-51.94L335.28-51.94Q338.99-48.76 338.99-43.57L338.99-43.57L338.99-43.57Q338.99-24.91 306.76-24.91L306.76-24.91L306.76-24.91Q306.34-22.15 306.34-19.82L306.34-19.82L306.34-19.82Q306.34-14.95 308.51-13.09L308.51-13.09L308.51-13.09Q310.69-11.24 314.71-11.24L314.71-11.24L314.71-11.24Q318.74-11.24 323.04-13.09L323.04-13.09L323.04-13.09Q327.33-14.95 329.13-17.91ZM307.51-29.47L307.51-29.47L307.51-29.47Q315.03-29.47 319.38-34.13L319.38-34.13L319.38-34.13Q323.72-38.58 323.72-45.69L323.72-45.69L323.72-45.69Q323.72-48.12 322.82-49.45L322.82-49.45L322.82-49.45Q321.92-50.77 320.12-50.77L320.12-50.77L320.12-50.77Q318.32-50.77 316.78-50.09L316.78-50.09L316.78-50.09Q315.24-49.40 313.65-47.06L313.65-47.06L313.65-47.06Q309.73-41.76 307.51-29.47Z" fill="url(#editing-outline-gradient)"></path></g></g><style>text {
  font-size: 64px;
  font-family: Arial Black;
  dominant-baseline: central;
  text-anchor: middle;
}</style></svg>