<svg width="333.8299926757812px" height="188px" xmlns="http://www.w3.org/2000/svg" viewBox="83.08500366210939 -19 333.8299926757812 188" style="background: rgba(0, 0, 0, 0);" preserveAspectRatio="xMidYMid"><defs><linearGradient id="editing-outline-gradient" x1="-0.41354545764260087" x2="1.4135454576426008" y1="0.09326335692419985" y2="0.9067366430758002"><stop offset="0" stop-color="rgba(93.33333333333333%,25.882352941176457%,3.1372549019607843%,0.762)"></stop><stop offset="1" stop-color="rgba(25.49019607843146%,22.352941176470587%,100%,0.774)"></stop></linearGradient><filter id="editing-outline" x="-100%" y="-100%" width="300%" height="300%"><feMorphology in="SourceGraphic" operator="dilate" radius="1" result="outline"></feMorphology><feComposite operator="out" in="outline" in2="SourceAlpha"></feComposite></filter></defs><g filter="url(#editing-outline)"><g transform="translate(134.25001287460327, 111.04000091552734)"><path d="M12.72 0L1.06 0L13.78-69.96L36.57-69.96L53.11-21.84L61.90-69.96L73.67-69.85L60.74 0L36.46 0L21.20-46.32L12.72 0ZM99.43 2.12L99.43 2.12L99.43 2.12Q76.11 2.12 76.11-19.82L76.11-19.82L76.11-19.82Q76.11-35.40 84.69-45.47L84.69-45.47L84.69-45.47Q93.81-56.18 109.60-56.18L109.60-56.18L109.60-56.18Q121.05-56.18 126.88-50.88L126.88-50.88L126.88-50.88Q132.71-45.58 132.71-34.45L132.71-34.45L132.71-34.45Q132.71-17.49 123.60-7.63L123.60-7.63L123.60-7.63Q114.69 2.12 99.43 2.12ZM102.18-43.99L102.18-43.99L102.18-43.99Q100.91-41.13 99.91-36.84L99.91-36.84L99.91-36.84Q98.90-32.54 97.63-25.76L97.63-25.76L97.63-25.76Q96.35-18.97 96.35-10.60L96.35-10.60L96.35-10.60Q96.35-7.84 97.25-6.04L97.25-6.04L97.25-6.04Q98.16-4.24 100.59-4.24L100.59-4.24L100.59-4.24Q103.03-4.24 104.57-5.41L104.57-5.41L104.57-5.41Q106.11-6.57 107.27-9.33L107.27-9.33L107.27-9.33Q109.39-14.20 111.09-23.27L111.09-23.27L111.09-23.27Q112.78-32.33 112.94-36.25L112.94-36.25L112.94-36.25Q113.10-40.17 113.10-43.09L113.10-43.09L113.10-43.09Q113.10-46.00 112.25-47.91L112.25-47.91L112.25-47.91Q111.41-49.82 109.02-49.82L109.02-49.82L109.02-49.82Q106.64-49.82 105.05-48.34L105.05-48.34L105.05-48.34Q103.46-46.85 102.18-43.99ZM218.04-17.70L218.04-17.70Q211.05-8.06 204.31-2.97L204.31-2.97L204.31-2.97Q197.58 2.12 190.64 2.12L190.64 2.12L190.64 2.12Q183.70 2.12 181.26 0.74L181.26 0.74L181.26-22.58L181.26-22.58Q175.22-6.47 164.41-0.21L164.41-0.21L164.41-0.21Q160.48 2.12 156.77 2.12L156.77 2.12L156.77 2.12Q149.67 2.12 146.60 0.74L146.60 0.74L146.60 0.74Q145.86-23.53 145.22-30.26L145.22-30.26L145.22-30.26Q144.58-36.99 144.05-41.13L144.05-41.13L144.05-41.13Q142.99-49.40 139.39-52.79L139.39-52.79L139.39-52.79Q143.95-56.18 150.31-56.18L150.31-56.18L150.31-56.18Q162.60-56.18 164.30-40.92L164.30-40.92L164.30-40.92Q164.72-37.31 164.72-33.50L164.72-33.50L164.72-33.50Q164.72-27.77 163.45-7.84L163.45-7.84L163.45-7.84Q166.00-9.01 168.70-13.20L168.70-13.20L168.70-13.20Q171.40-17.38 173.63-23.11L173.63-23.11L173.63-23.11Q178.61-36.36 178.61-47.81L178.61-47.81L178.61-47.81Q178.61-49.61 178.13-51.52L178.13-51.52L178.13-51.52Q177.66-53.42 177.13-53.95L177.13-53.95L177.13-53.95Q180.84-56.18 186.51-56.18L186.51-56.18L186.51-56.18Q192.18-56.18 194.88-52.31L194.88-52.31L194.88-52.31Q197.58-48.44 198.33-41.34L198.33-41.34L198.33-41.34Q199.17-32.33 199.17-26.92L199.17-26.92L199.17-26.92Q199.17-19.40 198.43-8.27L198.43-8.27L198.43-8.27Q203.73-12.08 208.08-24.59L208.08-24.59L208.08-24.59Q212.42-37.10 212.42-46.00L212.42-46.00L212.42-46.00Q212.42-49.93 211.79-52.26L211.79-52.26L211.79-52.26Q215.29-56.18 221.33-56.18L221.33-56.18L221.33-56.18Q225.04-56.18 227.74-54.17L227.74-54.17L227.74-54.17Q230.44-52.15 230.44-48.39L230.44-48.39L230.44-48.39Q230.44-44.63 229.33-40.60L229.33-40.60L229.33-40.60Q228.22-36.57 226.42-32.44L226.42-32.44L226.42-32.44Q222.92-24.17 218.04-17.70L218.04-17.70Z" fill="url(#editing-outline-gradient)"></path></g></g><style>text {
  font-size: 64px;
  font-family: Arial Black;
  dominant-baseline: central;
  text-anchor: middle;
}</style></svg>