<svg width="328.6696044921875px" height="188px" xmlns="http://www.w3.org/2000/svg" viewBox="85.66519775390626 -19 328.6696044921875 188" style="background: rgba(0, 0, 0, 0);" preserveAspectRatio="xMidYMid"><defs><linearGradient id="editing-outline-gradient" x1="-0.41354545764260087" x2="1.4135454576426008" y1="0.09326335692419985" y2="0.9067366430758002"><stop offset="0" stop-color="rgba(93.33333333333333%,25.882352941176457%,3.1372549019607843%,0.762)"></stop><stop offset="1" stop-color="rgba(25.49019607843146%,22.352941176470587%,100%,0.774)"></stop></linearGradient><filter id="editing-outline" x="-100%" y="-100%" width="300%" height="300%"><feMorphology in="SourceGraphic" operator="dilate" radius="1" result="outline"></feMorphology><feComposite operator="out" in="outline" in2="SourceAlpha"></feComposite></filter></defs><g filter="url(#editing-outline)"><g transform="translate(137.64943480491638, 111.40999984741211)"><path d="M43.25-70.70L43.25-70.70L43.25-70.70Q69.22-70.70 69.22-52.36L69.22-52.36L69.22-52.36Q69.22-42.29 62.75-36.25L62.75-36.25L62.75-36.25Q56.39-30.21 45.26-30.21L45.26-30.21L45.26-30.21Q40.07-30.21 36.04-33.18L36.04-33.18L36.04-33.18Q34.13-34.45 32.86-36.15L32.86-36.15L32.86-36.15Q40.60-36.15 44.68-40.86L44.68-40.86L44.68-40.86Q48.76-45.58 48.76-54.80L48.76-54.80L48.76-54.80Q48.76-64.02 39.64-64.02L39.64-64.02L37.10-64.02L37.10-64.02Q36.46-64.02 35.93-63.92L35.93-63.92L23.74 0L0.74 0L13.78-69.43L13.78-69.43Q25.12-70.49 31.69-70.60L31.69-70.60L31.69-70.60Q38.27-70.70 43.25-70.70ZM74.36-3.18L74.36-3.18L74.36-3.18Q71.87-5.94 70.75-10.28L70.75-10.28L70.75-10.28Q69.64-14.63 69.64-21.73L69.64-21.73L69.64-21.73Q69.64-28.83 72.08-35.30L72.08-35.30L72.08-35.30Q74.52-41.76 78.97-46.43L78.97-46.43L78.97-46.43Q88.09-56.18 103.14-56.18L103.14-56.18L103.14-56.18Q108.54-56.18 112.47-54.38L112.47-54.38L130.59-56.18L122.75-14.84L122.75-14.84Q122.43-13.57 122.43-11.24L122.43-11.24L122.43-11.24Q122.43-8.90 123.86-7.42L123.86-7.42L123.86-7.42Q125.29-5.94 127.41-5.72L127.41-5.72L127.41-5.72Q126.35-2.12 122.48 0L122.48 0L122.48 0Q118.61 2.12 114.27 2.12L114.27 2.12L114.27 2.12Q109.92 2.12 107.01 0.48L107.01 0.48L107.01 0.48Q104.09-1.17 103.24-3.92L103.24-3.92L103.24-3.92Q101.55-1.27 97.94 0.42L97.94 0.42L97.94 0.42Q94.34 2.12 89.52 2.12L89.52 2.12L89.52 2.12Q84.69 2.12 80.77 0.85L80.77 0.85L80.77 0.85Q76.85-0.42 74.36-3.18ZM96.72-46.22L96.72-46.22L96.72-46.22Q95.51-44.31 94.45-41.07L94.45-41.07L94.45-41.07Q93.39-37.84 91.64-29.20L91.64-29.20L91.64-29.20Q89.89-20.56 89.89-14.42L89.89-14.42L89.89-14.42Q89.89-8.27 90.84-6.47L90.84-6.47L90.84-6.47Q91.80-4.66 93.49-4.66L93.49-4.66L93.49-4.66Q96.88-4.66 99.38-7.90L99.38-7.90L99.38-7.90Q101.87-11.13 102.82-16.85L102.82-16.85L108.44-47.91L108.44-47.91Q106.21-49.82 103.61-49.82L103.61-49.82L103.61-49.82Q101.02-49.82 99.48-48.97L99.48-48.97L99.48-48.97Q97.94-48.12 96.72-46.22ZM168.01-37.21L168.01-37.21L168.01-37.21Q169.49-41.13 169.49-44.52L169.49-44.52L169.49-44.52Q169.49-50.77 164.41-50.77L164.41-50.77L164.41-50.77Q161.76-50.77 159.58-48.39L159.58-48.39L159.58-48.39Q157.41-46.00 157.41-43.04L157.41-43.04L157.41-43.04Q157.41-40.92 159.11-39.22L159.11-39.22L159.11-39.22Q161.54-36.89 167.80-33.07L167.80-33.07L167.80-33.07Q174.05-29.26 176.44-26.13L176.44-26.13L176.44-26.13Q178.82-23.00 178.82-18.71L178.82-18.71L178.82-18.71Q178.82-14.42 176.75-10.49L176.75-10.49L176.75-10.49Q174.69-6.57 170.98-3.82L170.98-3.82L170.98-3.82Q163.03 2.12 150.31 2.12L150.31 2.12L150.31 2.12Q143.42 2.12 138.12-1.48L138.12-1.48L138.12-1.48Q132.82-4.98 132.82-9.12L132.82-9.12L132.82-9.12Q132.82-13.25 135.84-15.69L135.84-15.69L135.84-15.69Q138.86-18.13 143.31-18.13L143.31-18.13L143.31-18.13Q147.76-18.13 150.52-16.43L150.52-16.43L150.52-16.43Q149.14-12.93 149.14-10.60L149.14-10.60L149.14-10.60Q149.14-3.60 155.08-3.60L155.08-3.60L155.08-3.60Q157.62-3.60 159.32-5.19L159.32-5.19L159.32-5.19Q161.01-6.78 161.01-9.54L161.01-9.54L161.01-9.54Q161.01-14.95 151.90-20.67L151.90-20.67L151.90-20.67Q144.48-25.55 142.78-27.45L142.78-27.45L142.78-27.45Q139.92-30.85 139.92-35.09L139.92-35.09L139.92-35.09Q139.92-39.33 141.93-43.35L141.93-43.35L141.93-43.35Q143.95-47.38 147.66-50.24L147.66-50.24L147.66-50.24Q155.40-56.18 168.86-56.18L168.86-56.18L168.86-56.18Q175.75-56.18 179.83-53.42L179.83-53.42L179.83-53.42Q183.91-50.67 183.91-46.00L183.91-46.00L183.91-46.00Q183.91-41.34 181.10-38.69L181.10-38.69L181.10-38.69Q178.29-36.04 173.20-36.04L173.20-36.04L173.20-36.04Q169.71-36.04 168.01-37.21ZM189.53-10.60L189.53-10.60L189.53-10.60Q189.53-13.46 191.01-20.67L191.01-20.67L196.63-49.29L190.38-49.29L190.80-52.47L190.80-52.47Q203.52-56.29 215.82-65.61L215.82-65.61L220.90-65.61L218.36-54.06L226.63-54.06L225.67-49.29L217.51-49.29L212.11-20.67L212.11-20.67Q210.73-14.10 210.73-11.87L210.73-11.87L210.73-11.87Q210.73-6.78 215.18-5.72L215.18-5.72L215.18-5.72Q214.12-2.12 210.30 0L210.30 0L210.30 0Q206.49 2.12 201.08 2.12L201.08 2.12L201.08 2.12Q195.68 2.12 192.60-1.27L192.60-1.27L192.60-1.27Q189.53-4.66 189.53-10.60Z" fill="url(#editing-outline-gradient)"></path></g></g><style>text {
  font-size: 64px;
  font-family: Arial Black;
  dominant-baseline: central;
  text-anchor: middle;
}</style></svg>