<svg width="252.12503662109373px" height="122px" xmlns="http://www.w3.org/2000/svg" viewBox="123.93748168945314 14 252.12503662109373 122" style="background: rgba(0, 0, 0, 0);" preserveAspectRatio="xMidYMid"><defs><linearGradient id="editing-outline-gradient" x1="-0.41354545764260087" x2="1.4135454576426008" y1="0.09326335692419985" y2="0.9067366430758002"><stop offset="0" stop-color="rgba(93.33333333333333%,25.882352941176457%,3.1372549019607843%,0.818)"></stop><stop offset="1" stop-color="rgba(25.49019607843146%,22.352941176470587%,100%,0.806)"></stop></linearGradient><filter id="editing-outline" x="-100%" y="-100%" width="300%" height="300%"><feMorphology in="SourceGraphic" operator="dilate" radius="1" result="outline"></feMorphology><feComposite operator="out" in="outline" in2="SourceAlpha"></feComposite></filter></defs><g filter="url(#editing-outline)"><g transform="translate(165.23884308338165, 99)"><path d="M26.05-29.57L26.05-29.57L26.05-29.57Q27.01-31.49 27.01-33.28L27.01-33.28L27.01-33.28Q27.01-35.07 26.82-36.06L26.82-36.06L26.82-36.06Q26.62-37.06 26.18-37.82L26.18-37.82L26.18-37.82Q25.22-39.49 23.30-39.49L23.30-39.49L23.30-39.49Q20.93-39.49 19.01-37.76L19.01-37.76L19.01-37.76Q16.96-35.97 16.96-33.15L16.96-33.15L16.96-33.15Q16.96-31.36 18.21-29.98L18.21-29.98L18.21-29.98Q19.46-28.61 21.38-27.33L21.38-27.33L21.38-27.33Q23.30-26.05 25.47-24.77L25.47-24.77L25.47-24.77Q27.65-23.49 29.57-21.95L29.57-21.95L29.57-21.95Q33.98-18.43 33.98-13.70L33.98-13.70L33.98-13.70Q33.98-10.50 32.29-7.78L32.29-7.78L32.29-7.78Q30.59-5.06 27.78-3.07L27.78-3.07L27.78-3.07Q21.63 1.28 13.50 1.28L13.50 1.28L13.50 1.28Q6.91 1.28 3.52-0.86L3.52-0.86L3.52-0.86Q0.13-3.01 0.13-6.27L0.13-6.27L0.13-6.27Q0.13-12.10 4.67-13.57L4.67-13.57L4.67-13.57Q5.95-14.02 7.90-14.02L7.90-14.02L7.90-14.02Q9.86-14.02 12.10-13.18L12.10-13.18L12.10-13.18Q11.07-10.56 11.07-8.19L11.07-8.19L11.07-8.19Q11.07-3.07 14.72-3.07L14.72-3.07L14.72-3.07Q17.09-3.07 19.04-4.80L19.04-4.80L19.04-4.80Q20.99-6.53 20.99-8.48L20.99-8.48L20.99-8.48Q20.99-10.43 19.74-11.84L19.74-11.84L19.74-11.84Q18.50-13.25 16.64-14.37L16.64-14.37L16.64-14.37Q14.78-15.49 12.64-16.58L12.64-16.58L12.64-16.58Q10.50-17.66 8.64-19.20L8.64-19.20L8.64-19.20Q4.29-22.72 4.29-28.35L4.29-28.35L4.29-28.35Q4.29-32 6.08-34.85L6.08-34.85L6.08-34.85Q7.87-37.70 10.75-39.62L10.75-39.62L10.75-39.62Q16.51-43.52 23.58-43.52L23.58-43.52L23.58-43.52Q30.66-43.52 34.08-41.41L34.08-41.41L34.08-41.41Q37.50-39.30 37.50-35.71L37.50-35.71L37.50-35.71Q37.50-32.58 35.07-30.59L35.07-30.59L35.07-30.59Q32.96-28.93 30.40-28.93L30.40-28.93L30.40-28.93Q27.84-28.93 26.05-29.57ZM55.36-30.34L55.36-30.34L55.36-30.34Q58.82-33.92 66.11-33.92L66.11-33.92L66.11-33.92Q70.14-33.92 72.35-31.78L72.35-31.78L72.35-31.78Q74.56-29.63 74.56-25.70L74.56-25.70L74.56-25.70Q74.56-21.76 72.35-18.98L72.35-18.98L72.35-18.98Q70.14-16.19 66.05-15.04L66.05-15.04L66.05-15.04Q66.37-13.76 66.82-12.42L66.82-12.42L67.71-9.86L67.71-9.86Q68.93-6.59 69.89-5.44L69.89-5.44L69.89-5.44Q70.85-4.29 72.13-3.90L72.13-3.90L72.13-3.90Q71.42-1.28 68.86 0.13L68.86 0.13L68.86 0.13Q66.82 1.28 64 1.28L64 1.28L64 1.28Q55.74 1.28 54.66-11.46L54.66-11.46L54.66-11.46Q54.46-13.25 54.46-15.04L54.46-15.04L54.46-15.04Q57.66-15.94 59.90-18.94L59.90-18.94L59.90-18.94Q62.14-21.95 62.14-25.47L62.14-25.47L62.14-25.47Q62.14-28.99 59.65-28.99L59.65-28.99L59.65-28.99Q57.86-28.99 56.45-27.01L56.45-27.01L56.45-27.01Q55.04-25.02 54.40-21.63L54.40-21.63L50.18 0L37.25 1.28L46.21-44.80L59.07-46.08L57.60-38.46L57.60-38.46Q56.64-33.09 55.36-30.34ZM92.86-3.52L92.86-3.52L92.86-3.52Q90.88 1.28 84.54 1.28L84.54 1.28L84.54 1.28Q81.28 1.28 79.23-0.96L79.23-0.96L79.23-0.96Q77.50-2.94 77.50-4.93L77.50-4.93L77.50-4.93Q77.50-10.11 79.87-20.22L79.87-20.22L82.24-32.64L95.23-33.92L91.33-13.70L91.33-13.70Q90.24-8.96 90.24-7.30L90.24-7.30L90.24-7.30Q90.24-3.65 92.86-3.52ZM83.39-41.54L83.39-41.54L83.39-41.54Q83.39-44.03 85.47-45.38L85.47-45.38L85.47-45.38Q87.55-46.72 90.56-46.72L90.56-46.72L90.56-46.72Q93.57-46.72 95.39-45.38L95.39-45.38L95.39-45.38Q97.22-44.03 97.22-41.54L97.22-41.54L97.22-41.54Q97.22-39.04 95.20-37.76L95.20-37.76L95.20-37.76Q93.18-36.48 90.18-36.48L90.18-36.48L90.18-36.48Q87.17-36.48 85.28-37.76L85.28-37.76L85.28-37.76Q83.39-39.04 83.39-41.54ZM113.60-3.52L113.60-3.52L113.60-3.52Q111.62 1.28 105.28 1.28L105.28 1.28L105.28 1.28Q102.08 1.28 100.03-0.96L100.03-0.96L100.03-0.96Q98.37-2.82 98.37-4.93L98.37-4.93L98.37-4.93Q98.37-9.73 100.61-20.22L100.61-20.22L105.28-44.80L118.27-46.08L112.06-13.70L112.06-13.70Q110.98-8.96 110.98-7.30L110.98-7.30L110.98-7.30Q110.98-3.65 113.60-3.52ZM134.34-3.52L134.34-3.52L134.34-3.52Q132.35 1.28 126.02 1.28L126.02 1.28L126.02 1.28Q122.82 1.28 120.77-0.96L120.77-0.96L120.77-0.96Q119.10-2.82 119.10-4.93L119.10-4.93L119.10-4.93Q119.10-9.73 121.34-20.22L121.34-20.22L126.02-44.80L139.01-46.08L132.80-13.70L132.80-13.70Q131.71-8.96 131.71-7.30L131.71-7.30L131.71-7.30Q131.71-3.65 134.34-3.52ZM158.91-22.46L158.91-22.46L158.91-22.46Q159.81-24.83 159.81-26.88L159.81-26.88L159.81-26.88Q159.81-30.66 156.74-30.66L156.74-30.66L156.74-30.66Q155.14-30.66 153.82-29.22L153.82-29.22L153.82-29.22Q152.51-27.78 152.51-25.98L152.51-25.98L152.51-25.98Q152.51-24.70 153.54-23.68L153.54-23.68L153.54-23.68Q155.01-22.27 158.78-19.97L158.78-19.97L158.78-19.97Q162.56-17.66 164-15.78L164-15.78L164-15.78Q165.44-13.89 165.44-11.30L165.44-11.30L165.44-11.30Q165.44-8.70 164.19-6.34L164.19-6.34L164.19-6.34Q162.94-3.97 160.70-2.30L160.70-2.30L160.70-2.30Q155.90 1.28 148.22 1.28L148.22 1.28L148.22 1.28Q144.06 1.28 140.86-0.90L140.86-0.90L140.86-0.90Q137.66-3.01 137.66-5.50L137.66-5.50L137.66-5.50Q137.66-8 139.49-9.47L139.49-9.47L139.49-9.47Q141.31-10.94 144-10.94L144-10.94L144-10.94Q146.69-10.94 148.35-9.92L148.35-9.92L148.35-9.92Q147.52-7.81 147.52-6.40L147.52-6.40L147.52-6.40Q147.52-2.18 151.10-2.18L151.10-2.18L151.10-2.18Q152.64-2.18 153.66-3.14L153.66-3.14L153.66-3.14Q154.69-4.10 154.69-5.76L154.69-5.76L154.69-5.76Q154.69-9.02 149.18-12.48L149.18-12.48L149.18-12.48Q144.70-15.42 143.68-16.58L143.68-16.58L143.68-16.58Q141.95-18.62 141.95-21.18L141.95-21.18L141.95-21.18Q141.95-23.74 143.17-26.18L143.17-26.18L143.17-26.18Q144.38-28.61 146.62-30.34L146.62-30.34L146.62-30.34Q151.30-33.92 159.42-33.92L159.42-33.92L159.42-33.92Q163.58-33.92 166.05-32.26L166.05-32.26L166.05-32.26Q168.51-30.59 168.51-27.78L168.51-27.78L168.51-27.78Q168.51-24.96 166.82-23.36L166.82-23.36L166.82-23.36Q165.12-21.76 162.05-21.76L162.05-21.76L162.05-21.76Q159.94-21.76 158.91-22.46Z" fill="url(#editing-outline-gradient)"></path></g></g><style>text {
  font-size: 64px;
  font-family: Arial Black;
  dominant-baseline: central;
  text-anchor: middle;
}</style></svg>