<svg id="svg" version="1.1" xmlns="http://www.w3.org/2000/svg" xmlns:xlink="http://www.w3.org/1999/xlink" width="400" height="400" viewBox="0, 0, 400,400"><g id="svgg"><path id="path0" d="M123.125 109.007 C 122.974 109.159,120.814 109.441,118.325 109.635 C 112.630 110.078,107.183 110.904,102.900 111.975 C 101.965 112.209,100.525 112.568,99.700 112.773 C 92.985 114.445,86.685 116.786,80.800 119.796 C 75.915 122.294,74.600 123.000,74.400 123.230 C 74.290 123.357,73.030 124.240,71.600 125.194 C 60.339 132.704,50.691 144.666,45.465 157.600 C 45.065 158.590,44.584 159.760,44.395 160.200 C 44.207 160.640,43.836 161.720,43.571 162.600 C 43.306 163.480,42.955 164.560,42.790 165.000 C 42.375 166.110,41.045 171.192,40.591 173.400 C 38.379 184.169,37.408 197.578,38.000 209.200 C 38.240 213.930,38.599 218.700,38.796 219.800 C 38.994 220.900,39.356 223.150,39.600 224.800 C 39.844 226.450,40.214 228.353,40.422 229.028 C 40.630 229.704,40.800 230.591,40.800 231.000 C 40.800 231.409,40.968 232.296,41.173 232.972 C 41.378 233.647,41.756 235.010,42.012 236.000 C 42.268 236.990,42.640 238.113,42.839 238.495 C 43.038 238.877,43.199 239.417,43.198 239.695 C 43.189 242.287,52.048 259.651,54.374 261.600 C 54.505 261.710,55.122 262.430,55.744 263.200 C 59.397 267.720,65.235 272.941,70.853 276.712 C 73.682 278.611,74.552 279.141,78.100 281.128 C 88.199 286.785,104.235 290.614,122.085 291.630 C 126.422 291.877,130.832 291.965,131.885 291.825 C 132.938 291.686,136.320 291.391,139.400 291.171 C 153.571 290.156,175.533 286.132,187.200 282.412 C 187.750 282.236,189.010 281.871,190.000 281.601 C 190.990 281.330,192.160 280.970,192.600 280.800 C 193.040 280.630,194.210 280.266,195.200 279.990 C 196.190 279.714,197.495 279.290,198.100 279.047 L 199.200 278.605 199.200 234.935 C 199.200 210.917,199.091 190.981,198.957 190.633 C 198.739 190.064,195.970 190.000,171.760 190.000 L 144.805 190.000 144.703 220.300 L 144.600 250.600 140.800 250.719 C 117.666 251.442,103.809 241.309,99.610 220.600 C 98.592 215.579,98.426 214.472,98.019 209.955 C 95.545 182.524,101.321 155.122,110.103 152.624 C 116.946 150.678,155.468 149.761,181.245 150.931 L 187.890 151.232 188.166 149.716 C 189.830 140.586,192.042 116.611,191.281 115.963 C 191.126 115.831,189.380 115.413,187.400 115.033 C 185.420 114.654,182.900 114.171,181.800 113.960 C 178.346 113.297,175.881 112.850,173.400 112.437 C 172.080 112.217,170.370 111.923,169.600 111.784 C 166.066 111.147,158.992 110.298,151.200 109.574 C 145.955 109.088,123.498 108.634,123.125 109.007 M206.668 111.066 C 206.520 111.213,206.400 119.852,206.400 130.264 L 206.400 149.194 231.300 149.297 L 256.200 149.400 256.400 218.800 L 256.600 288.200 284.400 288.200 L 312.200 288.200 312.400 218.800 L 312.600 149.400 337.504 149.297 L 362.408 149.194 362.304 130.097 L 362.200 111.000 284.568 110.899 C 241.870 110.843,206.815 110.918,206.668 111.066 " stroke="none" fill="#545454" fill-rule="evenodd"></path><path id="path1" d="M30.400 0.291 C 29.630 0.382,28.829 0.624,28.620 0.829 C 28.411 1.033,27.837 1.200,27.344 1.200 C 26.851 1.200,26.336 1.380,26.200 1.600 C 26.064 1.820,25.513 2.000,24.976 2.000 C 24.439 2.000,24.000 2.180,24.000 2.400 C 24.000 2.620,23.640 2.800,23.200 2.800 C 22.760 2.800,22.400 2.980,22.400 3.200 C 22.400 3.420,22.040 3.600,21.600 3.600 C 21.160 3.600,20.800 3.780,20.800 4.000 C 20.800 4.220,20.440 4.400,20.000 4.400 C 19.560 4.400,19.200 4.580,19.200 4.800 C 19.200 5.020,18.912 5.200,18.560 5.200 C 18.209 5.200,17.417 5.740,16.800 6.400 C 16.183 7.060,15.483 7.600,15.243 7.600 C 14.218 7.600,7.600 14.206,7.600 15.229 C 7.600 15.476,7.060 16.183,6.400 16.800 C 5.740 17.417,5.200 18.209,5.200 18.560 C 5.200 18.912,5.020 19.200,4.800 19.200 C 4.580 19.200,4.400 19.560,4.400 20.000 C 4.400 20.440,4.220 20.800,4.000 20.800 C 3.780 20.800,3.600 21.160,3.600 21.600 C 3.600 22.040,3.420 22.400,3.200 22.400 C 2.980 22.400,2.800 22.760,2.800 23.200 C 2.800 23.640,2.620 24.000,2.400 24.000 C 2.180 24.000,2.000 24.439,2.000 24.976 C 2.000 25.513,1.820 26.064,1.600 26.200 C 1.380 26.336,1.200 26.851,1.200 27.344 C 1.200 27.837,0.975 28.465,0.700 28.740 C -0.036 29.476,-0.036 370.524,0.700 371.260 C 0.975 371.535,1.200 372.163,1.200 372.656 C 1.200 373.149,1.380 373.664,1.600 373.800 C 1.820 373.936,2.000 374.487,2.000 375.024 C 2.000 375.561,2.180 376.000,2.400 376.000 C 2.620 376.000,2.800 376.360,2.800 376.800 C 2.800 377.240,2.980 377.600,3.200 377.600 C 3.420 377.600,3.600 377.960,3.600 378.400 C 3.600 378.840,3.780 379.200,4.000 379.200 C 4.220 379.200,4.400 379.560,4.400 380.000 C 4.400 380.440,4.580 380.800,4.800 380.800 C 5.020 380.800,5.200 381.088,5.200 381.440 C 5.200 381.791,5.740 382.583,6.400 383.200 C 7.060 383.817,7.600 384.517,7.600 384.757 C 7.600 385.782,14.206 392.400,15.229 392.400 C 15.476 392.400,16.183 392.940,16.800 393.600 C 17.417 394.260,18.209 394.800,18.560 394.800 C 18.912 394.800,19.200 394.980,19.200 395.200 C 19.200 395.420,19.560 395.600,20.000 395.600 C 20.440 395.600,20.800 395.780,20.800 396.000 C 20.800 396.220,21.160 396.400,21.600 396.400 C 22.040 396.400,22.400 396.580,22.400 396.800 C 22.400 397.020,22.760 397.200,23.200 397.200 C 23.640 397.200,24.000 397.380,24.000 397.600 C 24.000 397.820,24.439 398.000,24.976 398.000 C 25.513 398.000,26.064 398.180,26.200 398.400 C 26.336 398.620,26.851 398.800,27.344 398.800 C 27.837 398.800,28.465 399.025,28.740 399.300 C 29.476 400.036,370.524 400.036,371.260 399.300 C 371.535 399.025,372.163 398.800,372.656 398.800 C 373.149 398.800,373.664 398.620,373.800 398.400 C 373.936 398.180,374.487 398.000,375.024 398.000 C 375.561 398.000,376.000 397.820,376.000 397.600 C 376.000 397.380,376.360 397.200,376.800 397.200 C 377.240 397.200,377.600 397.020,377.600 396.800 C 377.600 396.580,377.960 396.400,378.400 396.400 C 378.840 396.400,379.200 396.220,379.200 396.000 C 379.200 395.780,379.560 395.600,380.000 395.600 C 380.440 395.600,380.800 395.420,380.800 395.200 C 380.800 394.980,381.088 394.800,381.440 394.800 C 381.791 394.800,382.583 394.260,383.200 393.600 C 383.817 392.940,384.524 392.400,384.771 392.400 C 385.794 392.400,392.400 385.782,392.400 384.757 C 392.400 384.517,392.940 383.817,393.600 383.200 C 394.260 382.583,394.800 381.791,394.800 381.440 C 394.800 381.088,394.980 380.800,395.200 380.800 C 395.420 380.800,395.600 380.440,395.600 380.000 C 395.600 379.560,395.780 379.200,396.000 379.200 C 396.220 379.200,396.400 378.840,396.400 378.400 C 396.400 377.960,396.580 377.600,396.800 377.600 C 397.020 377.600,397.200 377.240,397.200 376.800 C 397.200 376.360,397.380 376.000,397.600 376.000 C 397.820 376.000,398.000 375.561,398.000 375.024 C 398.000 374.487,398.180 373.936,398.400 373.800 C 398.620 373.664,398.800 373.149,398.800 372.656 C 398.800 372.163,399.025 371.535,399.300 371.260 C 400.036 370.524,400.036 29.476,399.300 28.740 C 399.025 28.465,398.800 27.837,398.800 27.344 C 398.800 26.851,398.620 26.336,398.400 26.200 C 398.180 26.064,398.000 25.513,398.000 24.976 C 398.000 24.439,397.820 24.000,397.600 24.000 C 397.380 24.000,397.200 23.640,397.200 23.200 C 397.200 22.760,397.020 22.400,396.800 22.400 C 396.580 22.400,396.400 22.040,396.400 21.600 C 396.400 21.160,396.220 20.800,396.000 20.800 C 395.780 20.800,395.600 20.440,395.600 20.000 C 395.600 19.560,395.420 19.200,395.200 19.200 C 394.980 19.200,394.800 18.912,394.800 18.560 C 394.800 18.209,394.260 17.417,393.600 16.800 C 392.940 16.183,392.400 15.476,392.400 15.229 C 392.400 14.206,385.782 7.600,384.757 7.600 C 384.517 7.600,383.817 7.060,383.200 6.400 C 382.583 5.740,381.791 5.200,381.440 5.200 C 381.088 5.200,380.800 5.020,380.800 4.800 C 380.800 4.580,380.440 4.400,380.000 4.400 C 379.560 4.400,379.200 4.220,379.200 4.000 C 379.200 3.780,378.840 3.600,378.400 3.600 C 377.960 3.600,377.600 3.420,377.600 3.200 C 377.600 2.980,377.240 2.800,376.800 2.800 C 376.360 2.800,376.000 2.620,376.000 2.400 C 376.000 2.180,375.561 2.000,375.024 2.000 C 374.487 2.000,373.936 1.820,373.800 1.600 C 373.664 1.380,373.149 1.200,372.656 1.200 C 372.163 1.200,371.535 0.975,371.260 0.700 C 370.782 0.222,34.383 -0.182,30.400 0.291 M149.200 108.633 C 150.190 108.749,152.620 109.007,154.600 109.206 C 160.601 109.810,168.260 110.829,172.600 111.601 C 173.920 111.835,175.990 112.193,177.200 112.395 C 178.410 112.598,180.390 112.957,181.600 113.195 C 186.215 114.099,187.449 114.332,189.000 114.594 C 192.343 115.158,192.527 115.396,192.234 118.793 C 192.092 120.447,191.796 124.140,191.577 127.000 C 190.782 137.390,189.283 148.902,188.463 150.914 L 188.009 152.027 182.105 151.723 C 171.366 151.169,123.567 151.336,118.200 151.945 C 110.547 152.814,108.588 153.437,106.649 155.615 C 96.648 166.847,95.320 218.024,104.636 233.200 C 104.973 233.750,105.349 234.515,105.471 234.900 C 105.593 235.285,105.852 235.600,106.047 235.600 C 106.241 235.600,106.400 235.870,106.400 236.200 C 106.400 236.530,106.580 236.800,106.800 236.800 C 107.020 236.800,107.200 237.000,107.200 237.243 C 107.200 237.961,112.897 243.326,114.618 244.230 C 115.488 244.687,116.560 245.251,117.000 245.483 C 117.440 245.716,118.250 246.084,118.800 246.300 C 119.350 246.516,120.250 246.883,120.800 247.116 C 121.350 247.349,122.340 247.651,123.000 247.788 C 123.660 247.924,124.920 248.208,125.800 248.418 C 130.117 249.449,134.654 249.987,139.097 249.993 L 143.995 250.000 144.097 219.900 L 144.200 189.800 171.800 189.800 L 199.400 189.800 199.400 234.590 L 199.400 279.381 198.200 279.744 C 197.540 279.943,196.640 280.244,196.200 280.412 C 192.102 281.977,174.424 286.636,168.700 287.660 C 167.655 287.847,165.945 288.166,164.900 288.368 C 149.910 291.273,141.242 292.153,127.800 292.137 C 114.824 292.121,106.773 291.323,98.600 289.243 C 97.720 289.019,96.460 288.724,95.800 288.588 C 95.140 288.451,94.240 288.192,93.800 288.012 C 93.360 287.832,91.380 287.189,89.400 286.582 C 83.411 284.746,68.575 277.043,66.800 274.847 C 66.690 274.711,65.520 273.714,64.200 272.630 C 56.169 266.038,48.798 256.087,45.215 247.000 C 44.695 245.680,44.151 244.420,44.007 244.200 C 43.862 243.980,43.511 242.990,43.226 242.000 C 42.942 241.010,42.570 239.840,42.400 239.400 C 42.230 238.960,41.870 237.790,41.599 236.800 C 41.329 235.810,40.967 234.550,40.796 234.000 C 40.625 233.450,40.271 231.920,40.009 230.600 C 39.747 229.280,39.447 227.840,39.343 227.400 C 36.959 217.306,36.667 192.638,38.778 179.600 C 38.974 178.390,39.253 176.590,39.398 175.600 C 39.543 174.610,39.815 173.440,40.003 173.000 C 40.192 172.560,40.456 171.570,40.592 170.800 C 40.727 170.030,40.939 168.813,41.063 168.096 C 41.187 167.379,41.449 166.694,41.644 166.573 C 41.840 166.452,42.000 165.924,42.000 165.400 C 42.000 164.876,42.180 164.336,42.400 164.200 C 42.620 164.064,42.800 163.511,42.800 162.971 C 42.800 162.431,42.959 161.677,43.153 161.295 C 43.348 160.913,43.689 160.150,43.913 159.600 C 45.776 155.008,48.409 149.643,50.193 146.800 C 50.952 145.590,51.873 144.060,52.240 143.400 C 53.907 140.399,60.681 133.001,65.240 129.200 C 69.717 125.468,70.584 124.815,71.067 124.807 C 71.323 124.803,71.593 124.655,71.667 124.477 C 72.239 123.089,85.961 116.179,91.600 114.438 C 92.370 114.201,93.900 113.712,95.000 113.352 C 96.100 112.992,97.630 112.549,98.400 112.367 C 99.170 112.185,100.610 111.839,101.600 111.596 C 109.401 109.689,116.120 108.811,125.600 108.459 C 133.028 108.184,146.195 108.281,149.200 108.633 M362.755 110.546 C 363.081 110.939,363.179 116.487,363.104 130.446 L 363.000 149.800 337.901 149.903 L 312.802 150.006 312.701 219.503 L 312.600 289.000 284.400 289.000 L 256.200 289.000 256.099 219.500 L 255.998 150.000 231.013 150.000 C 206.721 150.000,206.017 149.979,205.614 149.226 C 204.860 147.817,205.062 111.395,205.829 110.629 C 206.718 109.739,362.017 109.657,362.755 110.546 " stroke="none" fill="#dbdbdb" fill-rule="evenodd"></path><path id="path2" d="M124.700 108.689 C 125.415 108.778,126.585 108.778,127.300 108.689 C 128.015 108.601,127.430 108.528,126.000 108.528 C 124.570 108.528,123.985 108.601,124.700 108.689 M141.705 108.687 C 142.314 108.779,143.214 108.777,143.705 108.682 C 144.197 108.587,143.700 108.511,142.600 108.514 C 141.500 108.517,141.097 108.595,141.705 108.687 M205.785 130.000 C 205.785 140.450,205.836 144.725,205.900 139.500 C 205.963 134.275,205.963 125.725,205.900 120.500 C 205.836 115.275,205.785 119.550,205.785 130.000 M191.720 118.000 C 191.720 119.210,191.795 119.705,191.887 119.100 C 191.978 118.495,191.978 117.505,191.887 116.900 C 191.795 116.295,191.720 116.790,191.720 118.000 M61.578 132.700 L 60.200 134.200 61.700 132.822 C 63.096 131.538,63.384 131.200,63.078 131.200 C 63.012 131.200,62.337 131.875,61.578 132.700 M169.300 151.087 C 169.905 151.178,170.895 151.178,171.500 151.087 C 172.105 150.995,171.610 150.920,170.400 150.920 C 169.190 150.920,168.695 150.995,169.300 151.087 M179.700 151.487 C 180.305 151.578,181.295 151.578,181.900 151.487 C 182.505 151.395,182.010 151.320,180.800 151.320 C 179.590 151.320,179.095 151.395,179.700 151.487 M97.731 197.400 C 97.733 198.940,97.805 199.521,97.892 198.691 C 97.979 197.861,97.977 196.601,97.889 195.891 C 97.800 195.181,97.729 195.860,97.731 197.400 M140.900 250.687 C 141.505 250.778,142.495 250.778,143.100 250.687 C 143.705 250.595,143.210 250.520,142.000 250.520 C 140.790 250.520,140.295 250.595,140.900 250.687 M127.700 292.276 C 128.085 292.376,128.715 292.376,129.100 292.276 C 129.485 292.175,129.170 292.093,128.400 292.093 C 127.630 292.093,127.315 292.175,127.700 292.276 " stroke="none" fill="#9b9b9b" fill-rule="evenodd"></path><path id="path3" d="M131.519 108.698 C 133.344 108.772,136.224 108.772,137.919 108.697 C 139.614 108.622,138.120 108.561,134.600 108.562 C 131.080 108.562,129.694 108.624,131.519 108.698 M118.600 109.200 L 116.200 109.466 118.600 109.485 C 119.920 109.496,121.540 109.368,122.200 109.200 L 123.400 108.895 122.200 108.915 C 121.540 108.926,119.920 109.054,118.600 109.200 M146.400 109.205 C 148.200 109.541,153.081 109.731,152.767 109.453 C 152.675 109.371,150.800 109.207,148.600 109.087 C 145.866 108.938,145.170 108.975,146.400 109.205 M111.800 110.000 L 110.600 110.305 111.800 110.325 C 112.460 110.335,113.360 110.189,113.800 110.000 L 114.600 109.656 113.800 109.675 C 113.360 109.686,112.460 109.832,111.800 110.000 M155.600 109.989 C 156.578 110.313,160.696 110.542,160.367 110.255 C 160.275 110.175,158.940 110.008,157.400 109.884 C 155.696 109.747,154.991 109.788,155.600 109.989 M106.800 110.800 C 105.433 111.088,105.428 111.095,106.600 111.119 C 107.260 111.133,108.160 110.989,108.600 110.800 C 109.562 110.387,108.764 110.387,106.800 110.800 M162.800 110.793 C 163.788 111.116,167.089 111.335,166.767 111.056 C 166.675 110.976,165.520 110.811,164.200 110.688 C 162.709 110.549,162.179 110.589,162.800 110.793 M206.496 110.732 C 206.100 110.984,206.014 115.152,206.096 130.226 L 206.200 149.400 231.262 149.600 C 245.046 149.710,256.240 149.665,256.138 149.500 C 256.036 149.335,244.802 149.200,231.173 149.200 L 206.392 149.200 206.496 130.100 L 206.600 111.000 284.400 111.000 L 362.200 111.000 362.304 130.100 L 362.408 149.200 337.627 149.200 C 323.998 149.200,312.764 149.335,312.662 149.500 C 312.560 149.665,323.754 149.710,337.538 149.600 L 362.600 149.400 362.704 130.446 C 362.779 116.783,362.681 111.339,362.355 110.946 C 361.842 110.328,207.466 110.116,206.496 110.732 M103.200 111.600 C 102.376 111.864,102.341 111.926,103.000 111.954 C 103.440 111.973,104.070 111.813,104.400 111.600 C 105.101 111.147,104.614 111.147,103.200 111.600 M168.400 111.587 C 169.391 111.917,172.287 112.135,171.967 111.854 C 171.875 111.774,170.810 111.606,169.600 111.481 C 168.180 111.334,167.754 111.371,168.400 111.587 M99.800 112.400 C 98.693 112.682,98.677 112.709,99.600 112.747 C 100.150 112.769,100.870 112.613,101.200 112.400 C 101.881 111.960,101.529 111.960,99.800 112.400 M174.705 112.683 C 175.202 112.779,175.922 112.775,176.305 112.675 C 176.687 112.575,176.280 112.496,175.400 112.501 C 174.520 112.505,174.207 112.587,174.705 112.683 M96.800 113.200 C 95.976 113.464,95.941 113.526,96.600 113.554 C 97.040 113.573,97.670 113.413,98.000 113.200 C 98.701 112.747,98.214 112.747,96.800 113.200 M177.800 113.163 C 178.240 113.338,179.500 113.588,180.600 113.718 C 181.737 113.853,182.255 113.818,181.800 113.637 C 181.360 113.462,180.100 113.212,179.000 113.082 C 177.863 112.947,177.345 112.982,177.800 113.163 M188.200 115.200 C 189.892 115.631,191.344 115.631,190.000 115.200 C 189.450 115.024,188.550 114.883,188.000 114.887 C 187.102 114.894,187.122 114.926,188.200 115.200 M86.600 116.785 C 85.280 117.416,84.380 117.933,84.600 117.935 C 85.133 117.940,89.914 115.664,89.400 115.650 C 89.180 115.644,87.920 116.155,86.600 116.785 M80.700 119.429 C 79.205 120.240,79.296 120.578,80.800 119.800 C 81.460 119.459,82.000 119.094,82.000 118.990 C 82.000 118.732,81.957 118.747,80.700 119.429 M191.340 122.000 C 191.340 123.870,191.409 124.635,191.493 123.700 C 191.577 122.765,191.577 121.235,191.493 120.300 C 191.409 119.365,191.340 120.130,191.340 122.000 M71.846 124.596 C 68.854 126.666,68.660 127.137,71.600 125.194 C 74.676 123.161,74.634 123.194,74.167 123.222 C 73.965 123.234,72.921 123.852,71.846 124.596 M66.393 128.667 C 63.725 130.937,57.600 136.893,57.600 137.215 C 57.600 137.344,59.175 135.897,61.100 134.001 C 63.025 132.105,65.590 129.713,66.800 128.686 C 68.010 127.660,68.907 126.815,68.793 126.810 C 68.679 126.804,67.599 127.640,66.393 128.667 M190.656 129.045 C 190.515 130.072,190.425 131.832,190.455 132.956 C 190.493 134.386,190.611 133.865,190.845 131.224 C 191.200 127.225,191.086 125.908,190.656 129.045 M189.853 136.836 C 189.714 137.531,189.623 138.753,189.651 139.550 C 189.685 140.530,189.810 140.163,190.035 138.418 C 190.389 135.683,190.277 134.713,189.853 136.836 M189.072 143.404 C 188.927 144.282,188.829 145.540,188.853 146.200 C 188.878 146.860,189.055 146.320,189.248 145.000 C 189.640 142.315,189.485 140.907,189.072 143.404 M51.425 145.418 C 49.226 148.774,47.672 151.850,48.405 151.397 C 48.622 151.263,48.800 150.991,48.800 150.794 C 48.800 150.448,50.447 147.521,51.825 145.418 C 52.192 144.858,52.402 144.400,52.292 144.400 C 52.182 144.400,51.792 144.858,51.425 145.418 M136.300 150.700 C 141.635 150.763,150.365 150.763,155.700 150.700 C 161.035 150.637,156.670 150.585,146.000 150.585 C 135.330 150.585,130.965 150.637,136.300 150.700 M118.800 151.200 C 117.175 151.453,117.136 151.482,118.400 151.505 C 119.170 151.519,120.700 151.390,121.800 151.218 C 123.692 150.924,123.713 150.907,122.200 150.914 C 121.320 150.917,119.790 151.046,118.800 151.200 M172.433 150.944 C 172.525 151.024,176.110 151.176,180.400 151.282 C 184.690 151.388,186.850 151.347,185.200 151.190 C 182.031 150.889,172.150 150.699,172.433 150.944 M47.107 153.127 C 46.128 154.784,44.733 158.489,45.195 158.203 C 45.418 158.065,45.604 157.738,45.609 157.476 C 45.614 157.214,46.143 155.924,46.785 154.609 C 48.022 152.073,48.193 151.289,47.107 153.127 M108.900 152.996 C 108.185 153.307,107.600 153.651,107.600 153.760 C 107.600 153.870,108.185 153.722,108.900 153.432 C 109.615 153.141,110.470 152.805,110.800 152.684 C 111.333 152.488,111.333 152.461,110.800 152.447 C 110.470 152.438,109.615 152.686,108.900 152.996 M105.581 155.828 C 104.889 156.834,104.386 157.719,104.462 157.796 C 104.539 157.873,105.188 157.050,105.904 155.968 C 107.546 153.487,107.273 153.369,105.581 155.828 M103.032 160.500 C 102.050 162.733,101.368 164.732,101.702 164.400 C 102.034 164.070,104.337 158.400,104.139 158.400 C 104.038 158.400,103.540 159.345,103.032 160.500 M100.250 169.250 C 99.917 170.917,100.240 171.240,100.600 169.600 C 100.752 168.909,100.793 168.259,100.691 168.158 C 100.589 168.056,100.391 168.547,100.250 169.250 M41.246 169.267 C 41.221 169.634,41.096 170.264,40.970 170.667 C 40.752 171.362,40.763 171.363,41.197 170.687 C 41.448 170.296,41.573 169.666,41.473 169.287 C 41.311 168.668,41.288 168.666,41.246 169.267 M40.446 172.867 C 40.421 173.234,40.296 173.864,40.170 174.267 C 39.952 174.962,39.963 174.963,40.397 174.287 C 40.648 173.896,40.773 173.266,40.673 172.887 C 40.511 172.268,40.488 172.266,40.446 172.867 M99.456 173.284 C 99.321 173.788,99.227 174.560,99.246 175.000 C 99.265 175.440,99.445 175.098,99.646 174.240 C 100.036 172.578,99.870 171.740,99.456 173.284 M39.454 177.554 C 39.300 178.518,39.258 179.391,39.361 179.494 C 39.630 179.763,40.115 176.945,39.907 176.322 C 39.812 176.036,39.608 176.590,39.454 177.554 M98.582 178.982 C 98.429 180.002,98.394 180.927,98.504 181.037 C 98.614 181.147,98.829 180.402,98.982 179.382 C 99.135 178.361,99.170 177.437,99.060 177.327 C 98.950 177.217,98.735 177.961,98.582 178.982 M38.618 183.018 C 38.465 184.039,38.430 184.963,38.540 185.073 C 38.650 185.183,38.865 184.439,39.018 183.418 C 39.171 182.398,39.206 181.473,39.096 181.363 C 38.986 181.253,38.771 181.998,38.618 183.018 M97.858 186.850 C 97.716 188.207,97.626 190.596,97.658 192.159 C 97.701 194.279,97.800 193.686,98.046 189.821 C 98.395 184.345,98.291 182.706,97.858 186.850 M37.871 190.402 C 37.726 191.611,37.631 193.860,37.661 195.400 C 37.706 197.757,37.767 197.472,38.050 193.600 C 38.411 188.672,38.305 186.787,37.871 190.402 M144.400 220.280 C 144.290 237.044,144.336 250.624,144.503 250.458 C 144.669 250.291,144.759 236.575,144.702 219.977 L 144.600 189.800 144.400 220.280 M97.640 203.233 C 97.661 205.085,97.817 207.590,97.986 208.800 C 98.173 210.137,98.214 208.881,98.091 205.600 C 97.865 199.555,97.579 198.057,97.640 203.233 M37.635 208.633 C 37.654 210.375,37.817 212.700,37.997 213.800 C 38.207 215.088,38.247 214.019,38.109 210.800 C 37.867 205.148,37.582 203.847,37.635 208.633 M98.428 214.433 C 98.444 215.185,98.620 216.160,98.820 216.600 C 99.065 217.139,99.105 216.746,98.941 215.400 C 98.651 213.019,98.389 212.524,98.428 214.433 M99.268 219.000 C 99.262 219.440,99.411 220.160,99.600 220.600 C 100.038 221.619,100.038 220.568,99.600 219.200 C 99.343 218.396,99.277 218.357,99.268 219.000 M38.468 219.800 C 38.474 220.240,38.624 221.050,38.800 221.600 L 39.120 222.600 39.132 221.600 C 39.138 221.050,38.989 220.240,38.800 219.800 L 38.456 219.000 38.468 219.800 M100.056 222.800 C 100.056 223.130,100.211 223.760,100.400 224.200 C 100.617 224.704,100.744 224.778,100.744 224.400 C 100.744 224.070,100.589 223.440,100.400 223.000 C 100.183 222.496,100.056 222.422,100.056 222.800 M39.287 224.600 C 39.291 225.040,39.432 225.940,39.600 226.600 C 39.874 227.678,39.906 227.698,39.913 226.800 C 39.917 226.250,39.776 225.350,39.600 224.800 C 39.349 224.016,39.281 223.973,39.287 224.600 M101.618 228.150 C 101.592 228.650,103.687 233.246,103.862 233.071 C 103.942 232.991,103.474 231.772,102.822 230.363 C 102.170 228.953,101.628 227.957,101.618 228.150 M40.244 229.800 C 40.573 231.271,40.802 231.590,40.794 230.567 C 40.791 230.145,40.605 229.530,40.382 229.200 C 40.085 228.762,40.048 228.924,40.244 229.800 M41.044 233.400 C 41.373 234.871,41.602 235.190,41.594 234.167 C 41.591 233.745,41.405 233.130,41.182 232.800 C 40.885 232.362,40.848 232.524,41.044 233.400 M104.618 234.700 C 106.356 237.392,107.200 238.564,107.200 238.287 C 107.200 237.905,104.350 233.600,104.097 233.600 C 103.993 233.600,104.228 234.095,104.618 234.700 M109.183 240.500 C 110.841 242.266,111.200 242.584,111.200 242.283 C 111.200 242.219,110.345 241.364,109.300 240.383 L 107.400 238.600 109.183 240.500 M43.228 240.892 C 43.182 241.365,44.486 244.448,44.658 244.275 C 44.745 244.188,44.466 243.325,44.037 242.358 C 43.608 241.391,43.244 240.731,43.228 240.892 M118.600 246.941 C 119.700 247.465,121.230 248.010,122.000 248.151 C 122.806 248.298,122.297 248.003,120.800 247.454 C 116.826 245.998,116.424 245.904,118.600 246.941 M126.433 249.349 C 126.525 249.431,127.500 249.601,128.600 249.728 C 129.949 249.884,130.274 249.849,129.600 249.620 C 128.601 249.280,126.118 249.068,126.433 249.349 M133.800 250.403 C 135.851 250.738,140.266 250.917,139.967 250.653 C 139.875 250.571,138.000 250.408,135.800 250.290 C 133.029 250.142,132.415 250.176,133.800 250.403 M48.800 253.600 C 49.249 254.480,49.706 255.200,49.816 255.200 C 49.926 255.200,49.649 254.480,49.200 253.600 C 48.751 252.720,48.294 252.000,48.184 252.000 C 48.074 252.000,48.351 252.720,48.800 253.600 M54.400 261.939 C 54.400 262.159,55.705 263.669,57.300 265.295 C 58.895 266.920,59.376 267.339,58.370 266.225 C 57.363 265.111,56.058 263.601,55.470 262.869 C 54.881 262.137,54.400 261.719,54.400 261.939 M61.410 269.550 C 62.948 271.400,71.377 277.834,74.096 279.233 C 75.639 280.027,74.340 279.002,71.000 276.790 C 67.695 274.601,64.965 272.501,62.210 270.028 C 61.336 269.242,60.976 269.028,61.410 269.550 M187.200 282.400 C 186.667 282.745,186.667 282.788,187.200 282.788 C 187.530 282.788,188.070 282.613,188.400 282.400 C 188.933 282.055,188.933 282.012,188.400 282.012 C 188.070 282.012,187.530 282.187,187.200 282.400 M184.200 283.200 C 183.696 283.417,183.622 283.544,184.000 283.544 C 184.330 283.544,184.960 283.389,185.400 283.200 C 185.904 282.983,185.978 282.856,185.600 282.856 C 185.270 282.856,184.640 283.011,184.200 283.200 M83.200 283.800 C 83.750 284.114,84.380 284.372,84.600 284.372 C 84.820 284.372,84.550 284.114,84.000 283.800 C 83.450 283.486,82.820 283.228,82.600 283.228 C 82.380 283.228,82.650 283.486,83.200 283.800 M178.400 284.800 C 177.576 285.064,177.541 285.126,178.200 285.154 C 178.640 285.173,179.270 285.013,179.600 284.800 C 180.301 284.347,179.814 284.347,178.400 284.800 M174.600 285.600 C 173.511 285.877,173.493 285.907,174.400 285.925 C 174.950 285.935,175.760 285.789,176.200 285.600 C 177.186 285.176,176.266 285.176,174.600 285.600 M167.600 287.200 C 166.233 287.488,166.228 287.495,167.400 287.519 C 168.060 287.533,168.960 287.389,169.400 287.200 C 170.362 286.787,169.564 286.787,167.600 287.200 M97.478 288.578 C 99.434 289.189,102.291 289.759,102.000 289.479 C 101.736 289.226,96.869 287.992,96.268 288.027 C 96.010 288.041,96.555 288.290,97.478 288.578 M161.000 288.410 C 160.466 288.647,160.798 288.686,162.000 288.527 C 162.990 288.396,163.875 288.224,163.967 288.144 C 164.314 287.843,161.764 288.072,161.000 288.410 M256.400 288.500 C 256.400 288.665,269.000 288.800,284.400 288.800 C 299.800 288.800,312.400 288.665,312.400 288.500 C 312.400 288.335,299.800 288.200,284.400 288.200 C 269.000 288.200,256.400 288.335,256.400 288.500 M157.905 289.083 C 158.402 289.179,159.122 289.175,159.505 289.075 C 159.887 288.975,159.480 288.896,158.600 288.901 C 157.720 288.905,157.407 288.987,157.905 289.083 M102.833 289.749 C 102.925 289.831,103.900 290.001,105.000 290.128 C 106.349 290.284,106.674 290.249,106.000 290.020 C 105.001 289.680,102.518 289.468,102.833 289.749 M150.800 290.013 C 150.154 290.229,150.580 290.266,152.000 290.119 C 153.210 289.994,154.275 289.826,154.367 289.746 C 154.687 289.465,151.791 289.683,150.800 290.013 M107.633 290.550 C 107.725 290.632,108.880 290.800,110.200 290.923 C 111.778 291.070,112.189 291.035,111.400 290.820 C 110.166 290.485,107.336 290.282,107.633 290.550 M144.600 290.811 C 143.872 291.002,144.502 291.041,146.200 290.909 C 147.740 290.789,149.075 290.625,149.167 290.545 C 149.473 290.278,145.816 290.491,144.600 290.811 M115.091 291.489 C 115.801 291.577,117.061 291.579,117.891 291.492 C 118.721 291.405,118.140 291.333,116.600 291.331 C 115.060 291.329,114.381 291.400,115.091 291.489 M137.700 291.491 C 138.525 291.578,139.875 291.578,140.700 291.491 C 141.525 291.405,140.850 291.334,139.200 291.334 C 137.550 291.334,136.875 291.405,137.700 291.491 M121.111 291.893 C 122.051 291.978,123.491 291.977,124.311 291.891 C 125.130 291.805,124.360 291.736,122.600 291.737 C 120.840 291.739,120.170 291.809,121.111 291.893 M132.900 291.887 C 133.505 291.978,134.495 291.978,135.100 291.887 C 135.705 291.795,135.210 291.720,134.000 291.720 C 132.790 291.720,132.295 291.795,132.900 291.887 " stroke="none" fill="#939393" fill-rule="evenodd"></path><path id="path4" d="M133.305 108.287 C 133.914 108.379,134.814 108.377,135.305 108.282 C 135.797 108.187,135.300 108.111,134.200 108.114 C 133.100 108.117,132.697 108.195,133.305 108.287 M118.400 108.817 C 117.785 109.025,118.554 109.066,120.400 108.925 C 122.050 108.799,123.475 108.629,123.567 108.548 C 123.899 108.253,119.374 108.489,118.400 108.817 M144.433 108.544 C 144.525 108.624,146.220 108.788,148.200 108.910 C 150.268 109.036,151.374 108.992,150.800 108.805 C 149.829 108.489,144.099 108.255,144.433 108.544 M111.800 109.619 C 111.242 109.871,111.485 109.907,112.600 109.738 C 113.480 109.604,114.275 109.428,114.367 109.347 C 114.710 109.044,112.568 109.271,111.800 109.619 M154.433 109.350 C 154.525 109.432,155.680 109.604,157.000 109.731 C 158.555 109.880,159.048 109.842,158.400 109.621 C 157.414 109.284,154.110 109.059,154.433 109.350 M107.000 110.419 C 106.442 110.671,106.685 110.707,107.800 110.538 C 108.680 110.404,109.475 110.228,109.567 110.147 C 109.910 109.844,107.768 110.071,107.000 110.419 M161.633 110.149 C 161.725 110.231,162.700 110.401,163.800 110.528 C 165.149 110.684,165.474 110.649,164.800 110.420 C 163.801 110.080,161.318 109.868,161.633 110.149 M205.829 110.629 C 205.062 111.395,204.860 147.817,205.614 149.226 C 206.018 149.980,206.670 149.998,231.114 149.903 L 256.200 149.806 231.222 149.700 C 211.852 149.618,206.173 149.482,205.928 149.097 C 205.325 148.148,205.531 111.355,206.142 110.848 C 206.541 110.517,227.352 110.425,284.642 110.499 L 362.600 110.600 362.600 130.000 L 362.600 149.400 337.600 149.606 L 312.600 149.812 337.800 149.806 L 363.000 149.800 363.104 130.446 C 363.179 116.487,363.081 110.939,362.755 110.546 C 362.017 109.657,206.718 109.739,205.829 110.629 M167.633 110.947 C 167.725 111.028,168.520 111.214,169.400 111.362 C 170.546 111.554,170.830 111.514,170.400 111.221 C 169.860 110.853,167.232 110.593,167.633 110.947 M172.833 111.744 C 172.925 111.823,173.540 112.008,174.200 112.156 C 175.076 112.352,175.238 112.315,174.800 112.018 C 174.260 111.653,172.432 111.398,172.833 111.744 M178.000 112.800 C 179.542 113.294,180.364 113.294,179.600 112.800 C 179.270 112.587,178.550 112.427,178.000 112.446 L 177.000 112.480 178.000 112.800 M181.633 113.344 C 181.725 113.423,182.340 113.608,183.000 113.756 C 183.876 113.952,184.038 113.915,183.600 113.618 C 183.060 113.253,181.232 112.998,181.633 113.344 M186.400 114.400 C 187.768 114.838,188.819 114.838,187.800 114.400 C 187.360 114.211,186.640 114.062,186.200 114.068 C 185.557 114.077,185.596 114.143,186.400 114.400 M190.800 115.327 C 191.761 115.822,191.798 115.981,191.743 119.421 C 191.697 122.244,191.756 122.662,192.019 121.400 C 192.882 117.274,192.283 114.840,190.400 114.819 C 190.070 114.815,190.250 115.044,190.800 115.327 M76.213 121.324 C 73.850 122.753,71.452 124.400,71.733 124.400 C 71.911 124.400,72.841 123.860,73.800 123.200 C 74.759 122.540,75.692 121.994,75.872 121.987 C 76.052 121.980,76.549 121.710,76.976 121.387 C 77.899 120.689,77.338 120.643,76.213 121.324 M69.829 125.409 C 69.405 125.729,69.135 126.068,69.229 126.161 C 69.323 126.255,69.825 125.987,70.344 125.566 C 71.438 124.679,70.979 124.539,69.829 125.409 M65.200 129.257 L 63.000 131.289 65.099 129.608 C 66.939 128.134,67.913 127.173,67.524 127.213 C 67.456 127.220,66.410 128.140,65.200 129.257 M191.265 128.400 C 191.225 129.170,191.104 130.520,190.997 131.400 L 190.803 133.000 191.223 131.662 C 191.454 130.927,191.574 129.577,191.491 128.662 C 191.348 127.091,191.336 127.077,191.265 128.400 M59.400 134.579 C 57.235 136.937,56.834 137.600,58.594 135.914 C 59.676 134.877,60.480 133.956,60.381 133.868 C 60.281 133.779,59.840 134.099,59.400 134.579 M190.464 136.250 C 190.429 136.718,190.305 137.708,190.189 138.450 C 189.996 139.686,190.015 139.717,190.408 138.814 C 190.645 138.272,190.768 137.282,190.683 136.614 C 190.591 135.897,190.502 135.748,190.464 136.250 M54.415 140.421 C 53.307 141.752,52.400 142.958,52.400 143.101 C 52.400 143.243,52.543 143.189,52.719 142.980 C 55.660 139.475,56.823 138.000,56.646 138.000 C 56.527 138.000,55.523 139.089,54.415 140.421 M189.455 143.855 C 189.313 144.886,189.274 145.808,189.369 145.902 C 189.463 145.996,189.665 145.239,189.818 144.218 C 189.971 143.198,190.010 142.276,189.904 142.171 C 189.798 142.065,189.596 142.823,189.455 143.855 M51.302 144.900 C 50.736 145.615,49.940 147.200,50.146 147.200 C 50.242 147.200,50.693 146.570,51.147 145.800 C 51.973 144.401,52.049 143.957,51.302 144.900 M188.629 149.029 C 188.481 149.615,188.451 150.184,188.561 150.294 C 188.671 150.404,188.881 150.015,189.029 149.429 C 189.176 148.842,189.206 148.273,189.096 148.163 C 188.986 148.053,188.776 148.442,188.629 149.029 M256.198 219.700 L 256.200 289.000 284.400 289.000 L 312.600 289.000 312.602 219.600 L 312.603 150.200 312.501 219.500 L 312.398 288.800 284.400 288.800 L 256.402 288.800 256.299 219.600 L 256.197 150.400 256.198 219.700 M136.072 151.100 C 141.941 151.162,151.661 151.162,157.672 151.100 C 163.682 151.038,158.880 150.987,147.000 150.986 C 135.120 150.986,130.202 151.037,136.072 151.100 M122.505 151.487 C 123.114 151.579,124.014 151.577,124.505 151.482 C 124.997 151.387,124.500 151.311,123.400 151.314 C 122.300 151.317,121.897 151.395,122.505 151.487 M171.317 151.497 C 172.811 151.574,175.151 151.574,176.517 151.496 C 177.882 151.418,176.660 151.355,173.800 151.355 C 170.940 151.356,169.822 151.420,171.317 151.497 M185.800 151.600 L 183.400 151.866 185.676 151.933 C 186.928 151.970,188.064 151.820,188.200 151.600 C 188.336 151.380,188.392 151.230,188.324 151.267 C 188.256 151.304,187.120 151.454,185.800 151.600 M117.500 151.882 C 117.995 151.978,118.805 151.978,119.300 151.882 C 119.795 151.787,119.390 151.709,118.400 151.709 C 117.410 151.709,117.005 151.787,117.500 151.882 M111.000 152.800 C 110.496 153.017,110.422 153.144,110.800 153.144 C 111.130 153.144,111.760 152.989,112.200 152.800 C 112.704 152.583,112.778 152.456,112.400 152.456 C 112.070 152.456,111.440 152.611,111.000 152.800 M106.875 154.816 C 106.394 155.264,106.000 155.834,106.000 156.082 C 106.000 156.330,106.045 156.458,106.100 156.367 C 106.155 156.275,106.636 155.705,107.170 155.100 C 108.306 153.811,108.133 153.644,106.875 154.816 M101.849 164.615 C 101.712 164.973,101.615 165.566,101.634 165.933 C 101.653 166.300,101.827 166.069,102.021 165.420 C 102.398 164.158,102.265 163.533,101.849 164.615 M101.049 167.415 C 100.912 167.773,100.815 168.366,100.834 168.733 C 100.853 169.100,101.027 168.869,101.221 168.220 C 101.598 166.958,101.465 166.333,101.049 167.415 M40.649 169.815 C 40.512 170.173,40.415 170.766,40.434 171.133 C 40.453 171.500,40.627 171.269,40.821 170.620 C 41.198 169.358,41.065 168.733,40.649 169.815 M100.256 170.884 C 100.121 171.388,100.027 172.160,100.046 172.600 C 100.065 173.040,100.245 172.698,100.446 171.840 C 100.836 170.178,100.670 169.340,100.256 170.884 M39.867 173.067 C 39.720 173.213,39.615 173.798,39.634 174.367 C 39.668 175.381,39.675 175.379,40.021 174.220 C 40.385 173.003,40.331 172.602,39.867 173.067 M39.056 177.284 C 38.921 177.788,38.830 178.740,38.853 179.400 C 38.881 180.228,38.997 179.984,39.226 178.613 C 39.576 176.523,39.474 175.726,39.056 177.284 M99.301 177.800 C 99.305 178.680,99.387 178.993,99.483 178.495 C 99.579 177.998,99.575 177.278,99.475 176.895 C 99.375 176.513,99.296 176.920,99.301 177.800 M38.253 182.436 C 38.114 183.131,38.024 184.442,38.053 185.350 C 38.091 186.569,38.190 186.270,38.428 184.209 C 38.770 181.258,38.677 180.316,38.253 182.436 M98.537 185.400 C 98.539 187.160,98.609 187.830,98.693 186.889 C 98.778 185.949,98.777 184.509,98.691 183.689 C 98.605 182.870,98.536 183.640,98.537 185.400 M37.693 189.200 C 37.693 189.970,37.775 190.285,37.876 189.900 C 37.976 189.515,37.976 188.885,37.876 188.500 C 37.775 188.115,37.693 188.430,37.693 189.200 M98.134 192.000 C 98.134 193.650,98.205 194.325,98.291 193.500 C 98.378 192.675,98.378 191.325,98.291 190.500 C 98.205 189.675,98.134 190.350,98.134 192.000 M144.269 189.864 C 144.121 190.012,144.000 203.597,144.000 220.052 L 144.000 249.971 140.100 250.102 L 136.200 250.233 140.300 250.316 L 144.400 250.400 144.400 220.200 L 144.400 190.000 171.800 190.000 L 199.200 190.000 199.200 234.589 L 199.200 279.177 197.900 279.552 C 197.031 279.803,196.873 279.940,197.424 279.964 C 199.761 280.066,199.616 283.247,199.503 234.400 L 199.400 189.800 171.969 189.697 C 156.883 189.641,144.418 189.716,144.269 189.864 M37.375 201.800 C 37.375 207.740,37.431 210.226,37.499 207.324 C 37.567 204.422,37.567 199.562,37.499 196.524 C 37.431 193.486,37.375 195.860,37.375 201.800 M98.134 202.800 C 98.134 204.450,98.205 205.125,98.291 204.300 C 98.378 203.475,98.378 202.125,98.291 201.300 C 98.205 200.475,98.134 201.150,98.134 202.800 M98.537 209.400 C 98.539 211.160,98.609 211.830,98.693 210.889 C 98.778 209.949,98.777 208.509,98.691 207.689 C 98.605 206.870,98.536 207.640,98.537 209.400 M37.701 214.600 C 37.705 215.480,37.787 215.793,37.883 215.295 C 37.979 214.798,37.975 214.078,37.875 213.695 C 37.775 213.313,37.696 213.720,37.701 214.600 M99.293 216.800 C 99.293 217.570,99.375 217.885,99.476 217.500 C 99.576 217.115,99.576 216.485,99.476 216.100 C 99.375 215.715,99.293 216.030,99.293 216.800 M38.028 219.033 C 38.044 220.115,38.204 221.360,38.385 221.800 C 38.578 222.270,38.626 221.527,38.502 220.000 C 38.248 216.855,37.989 216.329,38.028 219.033 M100.006 221.033 C 100.009 221.455,100.195 222.070,100.418 222.400 C 100.715 222.838,100.752 222.676,100.556 221.800 C 100.227 220.329,99.998 220.010,100.006 221.033 M38.828 224.433 C 38.844 225.185,39.012 226.160,39.203 226.600 C 39.426 227.115,39.467 226.687,39.318 225.400 C 39.044 223.022,38.789 222.519,38.828 224.433 M100.806 224.233 C 100.809 224.655,100.995 225.270,101.218 225.600 C 101.515 226.038,101.552 225.876,101.356 225.000 C 101.027 223.529,100.798 223.210,100.806 224.233 M39.668 229.000 C 39.662 229.440,39.811 230.160,40.000 230.600 C 40.438 231.619,40.438 230.568,40.000 229.200 C 39.743 228.396,39.677 228.357,39.668 229.000 M40.406 232.633 C 40.409 233.055,40.595 233.670,40.818 234.000 C 41.115 234.438,41.152 234.276,40.956 233.400 C 40.627 231.929,40.398 231.610,40.406 232.633 M104.586 233.900 C 104.935 234.615,105.306 235.200,105.410 235.200 C 105.808 235.200,105.552 234.563,104.767 233.600 L 103.952 232.600 104.586 233.900 M108.400 239.093 C 108.400 239.286,109.073 240.063,109.896 240.822 C 111.188 242.012,111.256 242.038,110.396 241.018 C 108.746 239.061,108.400 238.727,108.400 239.093 M114.800 244.590 C 114.800 244.694,115.385 245.065,116.100 245.414 L 117.400 246.048 116.400 245.233 C 115.437 244.448,114.800 244.192,114.800 244.590 M126.000 248.800 C 127.368 249.238,128.419 249.238,127.400 248.800 C 126.960 248.611,126.240 248.462,125.800 248.468 C 125.157 248.477,125.196 248.543,126.000 248.800 M130.200 249.590 C 130.964 249.928,133.514 250.157,133.167 249.856 C 133.075 249.776,132.190 249.604,131.200 249.473 C 129.998 249.314,129.666 249.353,130.200 249.590 M49.000 254.800 C 49.341 255.460,49.711 256.000,49.821 256.000 C 49.931 256.000,49.741 255.460,49.400 254.800 C 49.059 254.140,48.689 253.600,48.579 253.600 C 48.469 253.600,48.659 254.140,49.000 254.800 M51.935 259.400 C 52.174 259.840,53.026 260.920,53.830 261.800 L 55.291 263.400 53.777 261.400 C 51.928 258.957,51.363 258.344,51.935 259.400 M56.001 264.600 C 56.551 265.260,57.045 265.875,57.100 265.967 C 57.155 266.058,57.288 266.045,57.396 265.938 C 57.504 265.830,57.009 265.215,56.297 264.571 L 55.003 263.400 56.001 264.600 M60.000 268.951 C 60.000 269.035,61.035 269.957,62.300 271.002 L 64.600 272.901 62.458 270.851 C 60.449 268.928,60.000 268.581,60.000 268.951 M66.805 274.680 C 66.808 274.856,67.438 275.407,68.205 275.904 C 70.003 277.068,70.000 276.800,68.200 275.427 C 67.430 274.840,66.802 274.503,66.805 274.680 M70.800 277.533 C 71.943 278.479,74.800 280.144,74.800 279.865 C 74.800 279.763,74.199 279.325,73.465 278.892 C 72.731 278.459,71.606 277.789,70.965 277.405 L 69.800 276.705 70.800 277.533 M75.200 280.184 C 75.200 280.294,75.920 280.751,76.800 281.200 C 77.680 281.649,78.400 281.926,78.400 281.816 C 78.400 281.706,77.680 281.249,76.800 280.800 C 75.920 280.351,75.200 280.074,75.200 280.184 M190.078 281.895 C 189.131 282.222,188.427 282.560,188.513 282.647 C 188.600 282.733,189.734 282.454,191.035 282.027 C 192.336 281.600,193.040 281.262,192.600 281.276 C 192.160 281.290,191.025 281.568,190.078 281.895 M182.800 284.018 C 182.362 284.315,182.524 284.352,183.400 284.156 C 184.871 283.827,185.190 283.598,184.167 283.606 C 183.745 283.609,183.130 283.795,182.800 284.018 M84.800 284.966 C 85.350 285.260,86.250 285.612,86.800 285.749 C 87.350 285.886,87.080 285.652,86.200 285.229 C 84.390 284.358,83.268 284.148,84.800 284.966 M180.000 284.818 C 179.562 285.115,179.724 285.152,180.600 284.956 C 182.071 284.627,182.390 284.398,181.367 284.406 C 180.945 284.409,180.330 284.595,180.000 284.818 M176.600 285.600 C 175.581 286.038,176.632 286.038,178.000 285.600 C 178.804 285.343,178.843 285.277,178.200 285.268 C 177.760 285.262,177.040 285.411,176.600 285.600 M169.800 287.200 C 169.296 287.417,169.222 287.544,169.600 287.544 C 169.930 287.544,170.560 287.389,171.000 287.200 C 171.504 286.983,171.578 286.856,171.200 286.856 C 170.870 286.856,170.240 287.011,169.800 287.200 M165.400 288.000 L 164.600 288.344 165.400 288.366 C 165.840 288.378,166.470 288.213,166.800 288.000 C 167.595 287.486,166.596 287.486,165.400 288.000 M161.200 288.800 C 160.396 289.057,160.357 289.123,161.000 289.132 C 161.440 289.138,162.160 288.989,162.600 288.800 C 163.619 288.362,162.568 288.362,161.200 288.800 M100.000 289.582 C 100.330 289.805,100.945 289.991,101.367 289.994 C 102.390 290.002,102.071 289.773,100.600 289.444 C 99.724 289.248,99.562 289.285,100.000 289.582 M156.600 289.600 C 155.511 289.877,155.493 289.907,156.400 289.925 C 156.950 289.935,157.760 289.789,158.200 289.600 C 159.186 289.176,158.266 289.176,156.600 289.600 M104.000 290.400 C 104.330 290.613,105.050 290.773,105.600 290.754 L 106.600 290.720 105.600 290.400 C 104.058 289.906,103.236 289.906,104.000 290.400 M151.200 290.400 C 149.833 290.688,149.828 290.695,151.000 290.719 C 151.660 290.733,152.560 290.589,153.000 290.400 C 153.962 289.987,153.164 289.987,151.200 290.400 M108.800 291.197 C 109.341 291.550,112.764 291.799,112.367 291.456 C 112.275 291.377,111.300 291.199,110.200 291.059 C 108.835 290.886,108.390 290.930,108.800 291.197 M145.000 291.200 L 143.400 291.486 145.000 291.515 C 145.880 291.531,146.960 291.389,147.400 291.200 L 148.200 290.856 147.400 290.885 C 146.960 290.901,145.880 291.042,145.000 291.200 M116.800 292.030 C 117.350 292.189,119.960 292.317,122.600 292.314 C 125.240 292.310,127.130 292.249,126.800 292.178 C 125.507 291.900,115.861 291.757,116.800 292.030 M133.400 292.000 L 129.400 292.245 133.600 292.275 C 135.910 292.292,138.340 292.168,139.000 292.000 L 140.200 291.695 138.800 291.725 C 138.030 291.741,135.600 291.865,133.400 292.000 " stroke="none" fill="#aeaeae" fill-rule="evenodd"></path></g></svg>